<?xml version="1.0" encoding="UTF-8"?>
<svg id="Layer_1" xmlns="http://www.w3.org/2000/svg" version="1.1" viewBox="0 0 1920 1080">
  <!-- Generator: Adobe Illustrator 29.1.0, SVG Export Plug-In . SVG Version: 2.1.0 Build 142)  -->
  <defs>
    <style>
      .st0 {
        fill: #f32735;
      }

      .st1 {
        fill: #009ade;
      }

      .st2 {
        fill: #002d74;
      }
    </style>
  </defs>
  <path class="st0" d="M1335.5,151.6v148.2c-55.7-6.3-114-10.6-165.1-13.4v-149.3c86.5,6.5,165.1,14.5,165.1,14.5Z"/>
  <path class="st0" d="M1335.5,779.3v148.2s-78.7,8-165.1,14.5v-149.3c51.2-2.9,109.4-7.1,165.1-13.4Z"/>
  <path class="st2" d="M629.5,539.5c0,168.7,78.3,259,386.8,259,0,0,52.7-.8,125.6-4.4v149.8c-51,3.6-101.9,6.4-138.9,6.4-167.4,0-546.9-13.3-546.9-410.9S835.5,128.7,1003,128.7s87.9,2.8,138.9,6.4v149.8c-72.9-3.6-125.6-4.4-125.6-4.4-308.5,0-386.8,90.4-386.8,259Z"/>
  <circle class="st1" cx="926.2" cy="539.5" r="192.2"/>
</svg>