<svg width="448" height="172" viewBox="0 0 448 172" fill="none" xmlns="http://www.w3.org/2000/svg">
<g clip-path="url(#clip0_13_880)">
<path d="M129.569 131.762H104.918V172.003H80.0207V131.762H0V106.735C18.3661 100.846 33.1183 83.6704 39.1585 65.2678H64.7781C61.1513 81.2167 53.1751 95.448 42.0625 106.735H80.0078V0H104.905V106.735H129.556V131.762H129.569Z" fill="#009ADE"/>
<path d="M224.045 0.981445C177.388 0.981445 139.688 39.2588 139.688 86.6148C139.688 133.971 177.388 172.003 224.045 172.003C270.702 172.003 308.17 133.725 308.17 86.6148C308.17 39.5042 270.457 0.981445 224.045 0.981445ZM224.045 147.221C190.927 147.221 164.339 119.985 164.339 86.6148C164.339 53.2448 190.927 26.0089 224.045 26.0089C257.163 26.0089 283.751 52.9994 283.751 86.6148C283.751 120.23 256.918 147.221 224.045 147.221Z" fill="#009ADE"/>
<path d="M255.718 72.1382L209.783 118.758L192.385 101.092L238.307 54.4717L255.718 72.1382Z" fill="#009ADE"/>
<path d="M209.577 54.9365L256.17 100.885L238.513 118.306L191.921 72.3447L209.577 54.9365Z" fill="#009ADE"/>
<path d="M448 131.762H423.348V172.003H398.452V131.762H318.444V106.735C336.81 100.846 351.562 83.6704 357.602 65.2678H383.222C379.595 81.2167 371.619 95.448 360.506 106.735H398.452V0H423.348V106.735H448V131.762Z" fill="#009ADE"/>
</g>
<defs>
<clipPath id="clip0_13_880">
<rect width="448" height="172.003" fill="white"/>
</clipPath>
</defs>
</svg>
