<svg xmlns="http://www.w3.org/2000/svg" viewBox="0 0 152 176" width="152" height="176"><g xmlns="http://www.w3.org/2000/svg" transform="matrix(0 1 -1 0 152 -0)"><g clip-path="url(#clip0_13_170)"><path d="M176 90.9487V100.841H159.781C157.73 100.841 155.892 99.5693 155.165 97.6478L148.593 80.256L131.132 127.377C130.419 129.298 128.597 130.581 126.552 130.6H126.505C124.479 130.6 122.658 129.359 121.914 127.465L111.486 100.86H97.8952C95.1688 100.86 92.9619 98.6455 92.9619 95.9155C92.9619 93.1854 95.1688 90.9706 97.8952 90.9706H114.85C116.879 90.9706 118.701 92.2151 119.442 94.1064L126.377 111.8L143.922 64.4539C144.639 62.5215 146.476 61.236 148.53 61.2305H148.547C150.598 61.2305 152.435 62.4996 153.163 64.4238L163.188 90.9487H176Z" fill="#0071CE" /><path d="M84.3342 92.9916C82.6278 92.9916 80.9705 92.1035 80.0572 90.5192L70.2015 73.4097C69.176 71.6307 69.3564 69.3995 70.6527 67.807L82.3926 53.4056L32.9472 61.8096C30.929 62.1523 28.9108 61.2121 27.8716 59.4469C26.8325 57.6816 26.9884 55.4559 28.2627 53.8524L46.0353 31.4993L39.2396 19.7019C37.8778 17.3364 38.6845 14.3131 41.0445 12.9453C43.4045 11.5775 46.4236 12.3916 47.7854 14.7544L56.2629 29.471C57.2775 31.2307 57.1134 33.4372 55.8472 35.027L44.028 49.8944L93.7113 41.452C95.7377 41.1066 97.7668 42.0605 98.8005 43.8422C99.8342 45.6238 99.6565 47.8605 98.3575 49.4585L80.451 71.4252L88.603 85.5771C89.9648 87.9426 89.1554 90.9687 86.7954 92.3337C86.0187 92.7833 85.171 92.9971 84.3342 92.9971V92.9916Z" fill="#0071CE" /><path d="M50.1017 0L47.8046 3.9882C46.8912 5.57526 45.2312 6.46335 43.5275 6.46335C42.6907 6.46335 41.843 6.24955 41.0663 5.80002C39.0154 4.61315 38.1348 2.1709 38.8349 0L50.1017 0Z" fill="#0071CE" /><path d="M125.518 151.252C130.2 151.252 133.995 147.448 133.995 142.755C133.995 138.062 130.2 134.258 125.518 134.258C120.836 134.258 117.041 138.062 117.041 142.755C117.041 147.448 120.836 151.252 125.518 151.252Z" fill="#D50037" /><path d="M16.851 73.1233C21.5329 73.1233 25.3284 69.319 25.3284 64.6261C25.3284 59.9332 21.5329 56.1289 16.851 56.1289C12.169 56.1289 8.37354 59.9332 8.37354 64.6261C8.37354 69.319 12.169 73.1233 16.851 73.1233Z" fill="#D50037" /><path d="M11.475 50.953C11.0211 51.0818 10.5671 51.1421 10.1186 51.1421C7.9692 51.1421 5.99477 49.7278 5.37674 47.5541C0.916506 31.9083 -0.751637 15.8432 0.309412 0H10.2034C9.12596 14.9304 10.6601 30.0828 14.8633 44.8378C15.6126 47.4637 14.0948 50.202 11.475 50.953Z" fill="white" /><path d="M106.231 144.334C105.834 144.334 105.432 144.285 105.027 144.183C70.628 135.549 41.1621 114.361 22.0605 84.5248C20.5892 82.2251 21.2538 79.1661 23.5481 77.6914C25.8425 76.214 28.8944 76.8828 30.3656 79.1826C48.1054 106.889 75.4739 126.567 107.426 134.587C110.07 135.25 111.675 137.937 111.014 140.587C110.453 142.832 108.44 144.331 106.231 144.331V144.334Z" fill="white" /><path d="M176 132.961V143.264C166.082 146.03 155.802 147.697 145.32 148.19C145.241 148.193 145.162 148.196 145.082 148.196C142.465 148.196 140.283 146.132 140.16 143.481C140.031 140.754 142.134 138.438 144.855 138.309C155.526 137.807 165.972 135.995 176 132.961Z" fill="white" /></g><defs><clipPath id="clip0_13_170"><rect width="176" height="151.256" fill="white" /></clipPath></defs></g></svg>