<svg width="62" height="33" viewBox="0 0 62 33" fill="none" xmlns="http://www.w3.org/2000/svg">
<path d="M34.3565 1.6529V7.44436C32.178 7.1997 29.9057 7.03212 27.9048 6.92152V1.08984C31.2831 1.34121 34.3565 1.65625 34.3565 1.65625V1.6529Z" fill="white"/>
<path d="M34.3565 26.1758V31.9672C34.3565 31.9672 31.2831 32.2789 27.9048 32.5336V26.702C29.9057 26.5914 32.178 26.4238 34.3565 26.1791V26.1758Z" fill="white"/>
<path d="M6.77346 16.8083C6.77346 23.3974 9.83341 26.9266 21.8855 26.9266C21.8855 26.9266 23.9434 26.8965 26.7922 26.7557V32.6075C24.8014 32.7482 22.8106 32.8555 21.366 32.8555C14.8238 32.8555 0 32.336 0 16.805C0 1.27395 14.8205 0.757812 21.3627 0.757812C22.8072 0.757812 24.798 0.865062 26.7888 1.00583V6.85761C23.9434 6.71685 21.8822 6.68668 21.8822 6.68668C9.83005 6.68668 6.77011 10.2159 6.77011 16.805L6.77346 16.8083Z" fill="white"/>
<path d="M18.3663 24.3196C22.5126 24.3196 25.8738 20.9584 25.8738 16.8121C25.8738 12.6659 22.5126 9.30469 18.3663 9.30469C14.2201 9.30469 10.8589 12.6659 10.8589 16.8121C10.8589 20.9584 14.2201 24.3196 18.3663 24.3196Z" fill="white"/>
<path d="M53.0113 11.4386C55.1862 11.4386 56.9494 9.67549 56.9494 7.50056C56.9494 5.32563 55.1862 3.5625 53.0113 3.5625C50.8364 3.5625 49.0732 5.32563 49.0732 7.50056C49.0732 9.67549 50.8364 11.4386 53.0113 11.4386Z" fill="white"/>
<path d="M43.3287 11.4386C45.5036 11.4386 47.2667 9.67549 47.2667 7.50056C47.2667 5.32563 45.5036 3.5625 43.3287 3.5625C41.1538 3.5625 39.3906 5.32563 39.3906 7.50056C39.3906 9.67549 41.1538 11.4386 43.3287 11.4386Z" fill="white"/>
<path d="M53.0113 30.0636C55.1862 30.0636 56.9494 28.3005 56.9494 26.1256C56.9494 23.9506 55.1862 22.1875 53.0113 22.1875C50.8364 22.1875 49.0732 23.9506 49.0732 26.1256C49.0732 28.3005 50.8364 30.0636 53.0113 30.0636Z" fill="white"/>
<path d="M43.3287 30.0636C45.5036 30.0636 47.2667 28.3005 47.2667 26.1256C47.2667 23.9506 45.5036 22.1875 43.3287 22.1875C41.1538 22.1875 39.3906 23.9506 39.3906 26.1256C39.3906 28.3005 41.1538 30.0636 43.3287 30.0636Z" fill="white"/>
<path d="M48.3795 20.747C50.5544 20.747 52.3175 18.9838 52.3175 16.8089C52.3175 14.634 50.5544 12.8708 48.3795 12.8708C46.2045 12.8708 44.4414 14.634 44.4414 16.8089C44.4414 18.9838 46.2045 20.747 48.3795 20.747Z" fill="white"/>
<path d="M58.0621 20.747C60.237 20.747 62.0001 18.9838 62.0001 16.8089C62.0001 14.634 60.237 12.8708 58.0621 12.8708C55.8872 12.8708 54.124 14.634 54.124 16.8089C54.124 18.9838 55.8872 20.747 58.0621 20.747Z" fill="white"/>
</svg>
