<svg width="182" height="227" viewBox="0 0 182 227" fill="none" xmlns="http://www.w3.org/2000/svg">
<g clip-path="url(#clip0_13_334)">
<path d="M0 162.879H4.75432V184.609H16.4731V188.871H0V162.879Z" fill="white"/>
<path d="M20.3286 162.879H25.0829V188.871H20.3286V162.879Z" fill="white"/>
<path d="M31.2463 162.879H35.3874L44.3374 174.996L53.3481 162.879H57.4892V188.871H52.7349V170.503L44.9689 181.131H43.6877L35.9946 170.467V188.871H31.2402V162.879H31.2463Z" fill="white"/>
<path d="M63.6582 162.879H68.4125V188.871H63.6582V162.879Z" fill="white"/>
<path d="M80.0343 167.123H72.3047V162.879H92.4999V167.123H84.7704V188.871H80.0343V167.123Z" fill="white"/>
<path d="M96.4102 162.879H101.164V184.609H112.883V188.871H96.4102V162.879Z" fill="white"/>
<path d="M116.739 162.879H134.53V167.141H121.493V173.659H132.757V177.671H121.493V184.609H134.7V188.871H116.739V162.879Z" fill="white"/>
<path d="M141.87 188.257C140.286 187.455 139.12 186.415 138.367 185.144C137.614 183.868 137.244 182.512 137.244 181.071H141.998C141.998 181.886 142.229 182.627 142.684 183.29C143.139 183.953 143.807 184.476 144.688 184.865C145.568 185.254 146.594 185.448 147.778 185.448C151.634 185.448 153.565 184.153 153.565 181.569C153.565 180.791 153.328 180.153 152.849 179.648C152.369 179.143 151.707 178.736 150.857 178.426C150.007 178.116 148.914 177.83 147.59 177.575C145.769 177.192 144.172 176.736 142.799 176.201C141.427 175.666 140.267 174.869 139.326 173.811C138.385 172.753 137.912 171.392 137.912 169.72C137.912 168.266 138.264 166.984 138.962 165.871C139.66 164.758 140.735 163.877 142.186 163.232C143.637 162.588 145.453 162.266 147.627 162.266C149.8 162.266 151.525 162.588 152.988 163.232C154.452 163.877 155.551 164.783 156.291 165.956C157.032 167.13 157.396 168.498 157.396 170.066H152.642C152.642 168.996 152.217 168.121 151.361 167.446C150.511 166.771 149.242 166.43 147.56 166.43C145.763 166.43 144.5 166.74 143.759 167.367C143.018 167.993 142.654 168.783 142.654 169.738C142.654 170.449 142.891 171.051 143.358 171.544C143.826 172.036 144.536 172.443 145.477 172.766C146.418 173.088 147.645 173.374 149.163 173.617C151.95 174.128 154.178 174.985 155.854 176.195C157.53 177.405 158.362 179.204 158.362 181.588C158.362 183.241 157.931 184.664 157.062 185.85C156.194 187.035 154.968 187.935 153.377 188.543C151.786 189.157 149.922 189.461 147.785 189.461C145.416 189.461 143.443 189.06 141.858 188.257H141.87Z" fill="white"/>
<path d="M165.503 188.257C163.918 187.455 162.752 186.415 161.999 185.144C161.246 183.868 160.876 182.512 160.876 181.071H165.63C165.63 181.886 165.861 182.627 166.316 183.29C166.772 183.953 167.44 184.476 168.32 184.865C169.201 185.254 170.227 185.448 171.411 185.448C175.266 185.448 177.197 184.153 177.197 181.569C177.197 180.791 176.961 180.153 176.481 179.648C176.001 179.143 175.339 178.736 174.489 178.426C173.639 178.116 172.546 177.83 171.223 177.575C169.401 177.192 167.804 176.736 166.432 176.201C165.06 175.666 163.9 174.869 162.959 173.811C162.017 172.753 161.544 171.392 161.544 169.72C161.544 168.266 161.896 166.984 162.594 165.871C163.293 164.758 164.367 163.877 165.819 163.232C167.27 162.588 169.085 162.266 171.259 162.266C173.433 162.266 175.157 162.588 176.62 163.232C178.084 163.877 179.183 164.783 179.924 165.956C180.664 167.13 181.029 168.498 181.029 170.066H176.274C176.274 168.996 175.849 168.121 174.993 167.446C174.143 166.771 172.874 166.43 171.192 166.43C169.395 166.43 168.132 166.74 167.391 167.367C166.65 167.993 166.286 168.783 166.286 169.738C166.286 170.449 166.523 171.051 166.99 171.544C167.458 172.036 168.168 172.443 169.11 172.766C170.051 173.088 171.277 173.374 172.795 173.617C175.582 174.128 177.811 174.985 179.486 176.195C181.162 177.405 181.994 179.204 181.994 181.588C181.994 183.241 181.563 184.664 180.695 185.85C179.826 187.035 178.6 187.935 177.009 188.543C175.418 189.157 173.554 189.461 171.417 189.461C169.049 189.461 167.075 189.06 165.491 188.257H165.503Z" fill="white"/>
<path d="M7.47447 225.796C5.88969 224.994 4.72388 223.954 3.97096 222.683C3.21804 221.407 2.84766 220.051 2.84766 218.61H7.60198C7.60198 219.425 7.83271 220.166 8.2881 220.829C8.7435 221.492 9.41141 222.015 10.2918 222.404C11.1723 222.793 12.1984 222.987 13.3825 222.987C17.2381 222.987 19.169 221.692 19.169 219.108C19.169 218.33 18.9322 217.692 18.4525 217.187C17.9728 216.683 17.311 216.275 16.4609 215.965C15.6109 215.655 14.5179 215.369 13.1942 215.114C11.3726 214.731 9.77573 214.275 8.40347 213.74C7.03122 213.205 5.87148 212.408 4.93033 211.35C3.98918 210.293 3.51557 208.931 3.51557 207.259C3.51557 205.806 3.86774 204.523 4.56601 203.41C5.26428 202.297 6.33902 201.416 7.79021 200.771C9.2414 200.127 11.0569 199.805 13.2307 199.805C15.4044 199.805 17.1288 200.127 18.5922 200.771C20.0555 201.416 21.1545 202.322 21.8953 203.495C22.6361 204.669 23.0004 206.037 23.0004 207.605H18.2461C18.2461 206.535 17.821 205.66 16.9649 204.985C16.1148 204.31 14.8458 203.969 13.1639 203.969C11.3666 203.969 10.1036 204.28 9.36284 204.906C8.62206 205.532 8.25775 206.322 8.25775 207.277C8.25775 207.988 8.49455 208.59 8.96209 209.083C9.42963 209.575 10.14 209.982 11.0812 210.305C12.0223 210.627 13.2489 210.913 14.7669 211.156C17.5539 211.667 19.7823 212.524 21.4581 213.734C23.134 214.944 23.9658 216.743 23.9658 219.127C23.9658 220.78 23.5347 222.203 22.6664 223.389C21.7981 224.574 20.5716 225.474 18.9808 226.082C17.3899 226.696 15.5258 227 13.3885 227C11.0205 227 9.0471 226.599 7.46232 225.796H7.47447Z" fill="white"/>
<path d="M33.2437 225.668C31.5557 224.793 30.2321 223.553 29.2666 221.941C28.3012 220.33 27.8154 218.464 27.8154 216.354V200.412H32.5515V216.007C32.5515 217.242 32.8005 218.366 33.2984 219.37C33.7963 220.379 34.5249 221.169 35.4843 221.747C36.4436 222.324 37.5852 222.616 38.9088 222.616C40.2325 222.616 41.3315 222.324 42.2848 221.747C43.2381 221.169 43.9728 220.379 44.4829 219.376C44.9929 218.372 45.2479 217.26 45.2479 216.019V200.406H50.0023V216.348C50.0023 218.397 49.5347 220.233 48.5996 221.844C47.6646 223.455 46.3591 224.714 44.6772 225.62C42.9953 226.526 41.0765 226.976 38.9149 226.976C36.7533 226.976 34.9439 226.538 33.2559 225.668H33.2437Z" fill="white"/>
<path d="M66.9004 200.412C68.6309 200.412 70.1792 200.765 71.5454 201.47C72.9116 202.176 73.9803 203.173 74.7514 204.449C75.5225 205.732 75.9051 207.204 75.9051 208.876C75.9051 210.687 75.4254 212.256 74.4721 213.594C73.5188 214.931 72.2316 215.88 70.6164 216.439L76.4941 226.398H71.0354L65.8985 217.169C65.6678 217.181 65.3338 217.187 64.8845 217.187H60.4399V226.398H55.6855V200.406H66.8883L66.9004 200.412ZM68.9891 212.627C69.6571 212.256 70.1853 211.745 70.5739 211.101C70.9625 210.45 71.1568 209.715 71.1568 208.882C71.1568 208.103 70.9625 207.392 70.5739 206.748C70.1853 206.103 69.651 205.592 68.9709 205.222C68.2909 204.845 67.538 204.656 66.7061 204.656H60.4459V213.18H66.7243C67.5622 213.18 68.3152 212.998 68.9891 212.627Z" fill="white"/>
<path d="M85.4259 225.132C83.3311 223.916 81.6735 222.268 80.4409 220.189C79.2143 218.11 78.6011 215.842 78.6011 213.386C78.6011 210.929 79.2143 208.619 80.4409 206.546C81.6674 204.466 83.3372 202.825 85.4441 201.615C87.5511 200.405 89.8584 199.797 92.3661 199.797C94.2363 199.797 96.07 200.162 97.8612 200.897C99.6525 201.633 101.201 202.691 102.488 204.089C103.775 205.488 104.625 207.117 105.02 208.99H100.193C99.5189 207.458 98.4866 206.272 97.0901 205.427C95.6996 204.582 94.0845 204.156 92.2508 204.156C90.6235 204.156 89.1237 204.539 87.7636 205.311C86.4035 206.084 85.3227 207.172 84.5273 208.582C83.7319 209.993 83.3372 211.592 83.3372 213.392C83.3372 215.191 83.7319 216.839 84.5273 218.225C85.3227 219.611 86.3974 220.688 87.7515 221.448C89.1055 222.208 90.6053 222.585 92.2447 222.585C93.7566 222.585 95.0864 222.323 96.234 221.8C97.3816 221.277 98.3106 220.554 99.021 219.624C99.7314 218.693 100.211 217.617 100.454 216.395H92.0565V212.419H105.609C105.633 215.27 105.123 217.794 104.073 219.988C103.022 222.177 101.492 223.892 99.4703 225.12C97.4544 226.348 95.056 226.962 92.2811 226.962C89.7977 226.962 87.5147 226.354 85.4198 225.138L85.4259 225.132Z" fill="white"/>
<path d="M109.981 200.41H127.772V204.672H114.735V211.19H125.999V215.203H114.735V222.14H127.942V226.402H109.981V200.41Z" fill="white"/>
<path d="M143.48 200.412C145.21 200.412 146.758 200.765 148.125 201.47C149.491 202.176 150.559 203.173 151.331 204.449C152.102 205.732 152.484 207.204 152.484 208.876C152.484 210.687 152.004 212.256 151.051 213.594C150.098 214.931 148.811 215.88 147.196 216.439L153.073 226.398H147.614L142.478 217.169C142.247 217.181 141.913 217.187 141.464 217.187H137.019V226.398H132.265V200.406H143.467L143.48 200.412ZM145.574 212.627C146.242 212.256 146.77 211.745 147.159 211.101C147.548 210.45 147.742 209.715 147.742 208.882C147.742 208.103 147.548 207.392 147.159 206.748C146.77 206.103 146.236 205.592 145.556 205.222C144.876 204.845 144.123 204.656 143.291 204.656H137.031V213.18H143.309C144.147 213.18 144.9 212.998 145.574 212.627Z" fill="white"/>
<path d="M163.274 216.522L153.061 200.41H158.599L165.66 212.278H165.678L172.686 200.41H178.278L168.028 216.485V226.408H163.274V216.528V216.522Z" fill="white"/>
<path d="M85.0013 129.388C84.0055 129.388 83.1068 128.774 82.7425 127.844L77.6117 114.76H70.9205C69.5786 114.76 68.4917 113.671 68.4917 112.328C68.4917 110.984 69.5786 109.896 70.9205 109.896H79.2694C80.2652 109.896 81.1638 110.51 81.5281 111.44L84.9406 120.14L93.5748 96.8603C93.927 95.9118 94.8317 95.2795 95.8457 95.2734H95.8518C96.8597 95.2734 97.7645 95.8997 98.1227 96.8421L103.059 109.883H111.086C112.428 109.883 113.515 110.972 113.515 112.315C113.515 113.659 112.428 114.747 111.086 114.747H101.383C100.375 114.747 99.4707 114.121 99.1124 113.179L95.8761 104.624L87.2782 127.795C86.9261 128.737 86.0335 129.37 85.0256 129.382C85.0195 129.382 85.0073 129.382 85.0013 129.382V129.388Z" fill="#0071CE"/>
<path d="M64.2411 110.896C63.4031 110.896 62.5834 110.459 62.1341 109.68L57.2826 101.266C56.7787 100.39 56.8637 99.2959 57.5073 98.5116L63.2878 91.4284L38.9515 95.5628C37.9557 95.733 36.966 95.271 36.4559 94.4015C35.9459 93.5321 36.0187 92.4377 36.6502 91.6473L45.3999 80.6548L42.0542 74.8546C41.3863 73.6933 41.781 72.2037 42.9407 71.5349C44.1005 70.8601 45.5881 71.2613 46.256 72.4226L50.4274 79.6577C50.9253 80.5211 50.8464 81.6094 50.221 82.3876L44.4041 89.6957L68.8618 85.5431C69.8576 85.3728 70.8595 85.841 71.3695 86.7165C71.8796 87.592 71.7885 88.6925 71.1509 89.4768L62.3345 100.281L66.348 107.242C67.0159 108.404 66.6213 109.893 65.4615 110.562C65.079 110.781 64.66 110.89 64.2471 110.89L64.2411 110.896Z" fill="#0071CE"/>
<path d="M44.1554 68.346C43.7425 68.346 43.3236 68.2427 42.941 68.0177C41.7813 67.3489 41.3805 65.8593 42.0545 64.6981L46.906 56.2835C47.41 55.4079 48.4058 54.9398 49.4016 55.0979L58.4184 56.5692L42.6739 37.5269C42.0302 36.7487 41.9331 35.6604 42.431 34.7788C42.9289 33.9033 43.9125 33.4229 44.9083 33.5689L58.7888 35.6604L62.1344 29.8601C62.8023 28.6988 64.2899 28.2976 65.4497 28.9724C66.6094 29.6412 67.0102 31.1308 66.3362 32.2921L62.1648 39.5272C61.6669 40.3905 60.6893 40.8648 59.6996 40.7189L50.4702 39.3265L66.2876 58.4601C66.9312 59.2383 67.0284 60.3388 66.5244 61.2204C66.0204 62.1019 65.0246 62.5762 64.0288 62.412L50.282 60.1685L46.2684 67.13C45.8191 67.9083 44.9994 68.346 44.1615 68.346H44.1554Z" fill="#0071CE"/>
<path d="M86.1486 44.2687C85.1407 44.2687 84.2359 43.6425 83.8777 42.7001L78.9412 29.6586H70.9141C69.5722 29.6586 68.4854 28.5703 68.4854 27.2267C68.4854 25.883 69.5722 24.7947 70.9141 24.7947H80.6171C81.625 24.7947 82.5297 25.4209 82.888 26.3633L86.1243 34.9178L94.7222 11.7472C95.0743 10.8048 95.9669 10.1725 96.9748 10.1603C97.9889 10.1482 98.8875 10.7622 99.2579 11.7046L104.389 24.7886H111.08C112.422 24.7886 113.509 25.8769 113.509 27.2206C113.509 28.5643 112.422 29.6526 111.08 29.6526H102.731C101.735 29.6526 100.837 29.0385 100.472 28.1083L97.0599 19.4079L88.4256 42.6879C88.0734 43.6364 87.1687 44.2687 86.1547 44.2748H86.1486V44.2687Z" fill="#0071CE"/>
<path d="M137.851 68.3368C137.013 68.3368 136.193 67.899 135.744 67.1208L131.573 59.8857C131.075 59.0224 131.154 57.9341 131.779 57.1558L137.596 49.8478L113.138 54.0003C112.143 54.1706 111.141 53.7024 110.631 52.8269C110.121 51.9514 110.212 50.8509 110.849 50.0666L119.666 39.2626L115.652 32.3011C114.984 31.1398 115.379 29.6502 116.539 28.9815C117.698 28.3127 119.186 28.7079 119.854 29.8691L124.705 38.2837C125.209 39.1592 125.124 40.2536 124.481 41.0379L118.7 48.1211L143.037 43.9867C144.026 43.8165 145.022 44.2785 145.532 45.148C146.042 46.0174 145.969 47.1118 145.338 47.9022L136.588 58.8947L139.934 64.6949C140.602 65.8562 140.207 67.3458 139.047 68.0146C138.665 68.2334 138.246 68.3429 137.833 68.3429L137.851 68.3368Z" fill="#0071CE"/>
<path d="M117.765 110.897C117.352 110.897 116.933 110.793 116.551 110.568C115.391 109.9 114.99 108.41 115.664 107.249L119.835 100.014C120.333 99.1504 121.311 98.6762 122.301 98.8221L131.53 100.214L115.713 81.0809C115.069 80.3026 114.972 79.2022 115.476 78.3206C115.98 77.439 116.976 76.9648 117.971 77.1289L131.718 79.3724L135.732 72.4109C136.4 71.2496 137.887 70.8483 139.047 71.5232C140.207 72.192 140.608 73.6816 139.934 74.8429L135.082 83.2575C134.578 84.133 133.582 84.6011 132.587 84.4431L123.57 82.9717L139.314 102.014C139.958 102.792 140.055 103.881 139.557 104.762C139.059 105.638 138.076 106.118 137.08 105.972L123.199 103.881L119.854 109.681C119.404 110.459 118.585 110.897 117.747 110.897H117.765Z" fill="#0071CE"/>
<path d="M84.5157 139.545C86.8195 139.545 88.6871 137.675 88.6871 135.368C88.6871 133.061 86.8195 131.191 84.5157 131.191C82.2118 131.191 80.3442 133.061 80.3442 135.368C80.3442 137.675 82.2118 139.545 84.5157 139.545Z" fill="#D50037"/>
<path d="M31.0279 101.127C33.3317 101.127 35.1993 99.2573 35.1993 96.9505C35.1993 94.6436 33.3317 92.7736 31.0279 92.7736C28.7241 92.7736 26.8564 94.6436 26.8564 96.9505C26.8564 99.2573 28.7241 101.127 31.0279 101.127Z" fill="#D50037"/>
<path d="M37.5127 35.5296C39.8165 35.5296 41.6841 33.6595 41.6841 31.3527C41.6841 29.0458 39.8165 27.1758 37.5127 27.1758C35.2089 27.1758 33.3413 29.0458 33.3413 31.3527C33.3413 33.6595 35.2089 35.5296 37.5127 35.5296Z" fill="#D50037"/>
<path d="M97.4849 8.35381C99.7887 8.35381 101.656 6.48375 101.656 4.17691C101.656 1.87006 99.7887 0 97.4849 0C95.1811 0 93.3135 1.87006 93.3135 4.17691C93.3135 6.48375 95.1811 8.35381 97.4849 8.35381Z" fill="#D50037"/>
<path d="M150.973 46.7796C153.276 46.7796 155.144 44.9095 155.144 42.6027C155.144 40.2958 153.276 38.4258 150.973 38.4258C148.669 38.4258 146.801 40.2958 146.801 42.6027C146.801 44.9095 148.669 46.7796 150.973 46.7796Z" fill="#D50037"/>
<path d="M144.488 112.369C146.792 112.369 148.659 110.499 148.659 108.193C148.659 105.886 146.792 104.016 144.488 104.016C142.184 104.016 140.316 105.886 140.316 108.193C140.316 110.499 142.184 112.369 144.488 112.369Z" fill="#D50037"/>
<path d="M43.6939 26.3794C43.0868 26.3794 42.4796 26.1545 42.0059 25.6924C41.0405 24.7561 41.0162 23.2179 41.9513 22.2512C54.0891 9.69611 70.3497 2.32725 87.7397 1.50646C89.0877 1.44566 90.2171 2.47924 90.2778 3.82291C90.3385 5.16657 89.3063 6.30352 87.9644 6.36432C71.813 7.12431 56.7122 13.9703 45.4366 25.6377C44.963 26.1301 44.3254 26.3794 43.6879 26.3794H43.6939Z" fill="white"/>
<path d="M27.7124 90.3159C26.6559 90.3159 25.6844 89.6167 25.3808 88.5527C20.5839 71.7478 22.3448 53.958 30.3355 38.4724C30.9487 37.2807 32.4181 36.8126 33.6082 37.4267C34.7983 38.0407 35.2659 39.5121 34.6526 40.7037C27.2327 55.0888 25.5994 71.608 30.0562 87.2212C30.4265 88.5102 29.6797 89.8599 28.3864 90.2247C28.1617 90.2855 27.9371 90.3159 27.7185 90.3159H27.7124Z" fill="white"/>
<path d="M75.0247 136.139C74.8304 136.139 74.6301 136.115 74.4358 136.066C57.5012 131.822 43.0014 121.402 33.596 106.731C32.8734 105.6 33.2013 104.098 34.3307 103.368C35.4601 102.645 36.9598 102.973 37.6885 104.104C46.4199 117.729 59.8935 127.402 75.6198 131.348C76.9192 131.677 77.7146 132.996 77.3867 134.297C77.1074 135.404 76.1177 136.139 75.0308 136.139H75.0247Z" fill="white"/>
<path d="M94.1455 138.037C92.8582 138.037 91.7835 137.021 91.7228 135.72C91.662 134.376 92.6943 133.24 94.0362 133.179C110.187 132.419 125.288 125.573 136.564 113.905C137.499 112.939 139.035 112.914 140.001 113.851C140.966 114.787 140.99 116.325 140.055 117.292C127.918 129.853 111.651 137.222 94.2608 138.037C94.2244 138.037 94.1819 138.037 94.1455 138.037Z" fill="white"/>
<path d="M149.515 102.389C149.139 102.389 148.762 102.304 148.404 102.116C147.214 101.502 146.746 100.03 147.36 98.8386C154.78 84.4535 156.413 67.9344 151.956 52.3211C151.586 51.0322 152.333 49.6825 153.626 49.3177C154.913 48.9468 156.261 49.6946 156.625 50.9896C161.422 67.7945 159.661 85.5844 151.671 101.07C151.24 101.909 150.39 102.389 149.509 102.389H149.515Z" fill="white"/>
<path d="M146.37 36.5572C145.569 36.5572 144.785 36.162 144.324 35.4385C135.592 21.8134 122.119 12.1402 106.393 8.19435C105.093 7.86604 104.298 6.5467 104.626 5.24559C104.953 3.94449 106.271 3.14802 107.57 3.47633C124.505 7.72012 139.005 18.1411 148.41 32.812C149.133 33.9428 148.805 35.4446 147.676 36.1742C147.269 36.4356 146.813 36.5572 146.364 36.5572H146.37Z" fill="white"/>
</g>
<defs>
<clipPath id="clip0_13_334">
<rect width="182" height="227" fill="white"/>
</clipPath>
</defs>
</svg>
