<svg width="262" height="58" viewBox="0 0 262 58" fill="none" xmlns="http://www.w3.org/2000/svg">
<path d="M46.069 10.264H42.401L41.813 12H39.307L42.863 2.172H45.635L49.191 12H46.657L46.069 10.264ZM45.453 8.416L44.235 4.818L43.031 8.416H45.453ZM52.5133 10.026H55.9013V12H49.8393V10.096L53.0873 6.162H49.8673V4.188H55.8313V6.092L52.5133 10.026ZM60.6346 4.076C61.3999 4.076 62.0813 4.23933 62.6786 4.566C63.2759 4.89267 63.7426 5.35933 64.0786 5.966C64.4146 6.57267 64.5826 7.282 64.5826 8.094C64.5826 8.906 64.4146 9.61533 64.0786 10.222C63.7519 10.8287 63.2899 11.2953 62.6926 11.622C62.0953 11.9487 61.4093 12.112 60.6346 12.112C59.8786 12.112 59.2066 11.9533 58.6186 11.636C58.0306 11.3187 57.5686 10.866 57.2326 10.278C56.9059 9.69 56.7426 9.004 56.7426 8.22C56.7426 7.98667 56.7566 7.75333 56.7846 7.52H62.2026C62.1653 7.03467 62.0066 6.666 61.7266 6.414C61.4559 6.15267 61.1199 6.022 60.7186 6.022C60.1213 6.022 59.7059 6.274 59.4726 6.778H56.9246C57.0553 6.26467 57.2886 5.80267 57.6246 5.392C57.9699 4.98133 58.3993 4.65933 58.9126 4.426C59.4259 4.19267 59.9999 4.076 60.6346 4.076ZM60.6626 10.194C61.0639 10.194 61.3999 10.0773 61.6706 9.844C61.9506 9.61067 62.1233 9.27933 62.1886 8.85H59.1926C59.1926 9.26067 59.3326 9.58733 59.6126 9.83C59.8926 10.0727 60.2426 10.194 60.6626 10.194ZM68.2395 5.49C68.5195 5.06067 68.8695 4.72467 69.2895 4.482C69.7095 4.23 70.1762 4.104 70.6895 4.104V6.638H70.0315C69.4342 6.638 68.9862 6.76867 68.6875 7.03C68.3889 7.282 68.2395 7.73 68.2395 8.374V12H65.8455V4.188H68.2395V5.49ZM74.2278 5.294C74.4518 4.93 74.7738 4.636 75.1938 4.412C75.6138 4.188 76.0945 4.076 76.6358 4.076C77.2798 4.076 77.8632 4.23933 78.3858 4.566C78.9085 4.89267 79.3192 5.35933 79.6178 5.966C79.9258 6.57267 80.0798 7.27733 80.0798 8.08C80.0798 8.88267 79.9258 9.592 79.6178 10.208C79.3192 10.8147 78.9085 11.286 78.3858 11.622C77.8632 11.9487 77.2798 12.112 76.6358 12.112C76.0852 12.112 75.6045 12.0047 75.1938 11.79C74.7832 11.566 74.4612 11.272 74.2278 10.908V12H71.8338V1.64H74.2278V5.294ZM77.6438 8.08C77.6438 7.48267 77.4758 7.016 77.1398 6.68C76.8132 6.33467 76.4072 6.162 75.9218 6.162C75.4458 6.162 75.0398 6.33467 74.7038 6.68C74.3772 7.02533 74.2138 7.49667 74.2138 8.094C74.2138 8.69133 74.3772 9.16267 74.7038 9.508C75.0398 9.85333 75.4458 10.026 75.9218 10.026C76.3978 10.026 76.8038 9.85333 77.1398 9.508C77.4758 9.15333 77.6438 8.67733 77.6438 8.08ZM80.8598 8.08C80.8598 7.27733 81.0091 6.57267 81.3078 5.966C81.6158 5.35933 82.0311 4.89267 82.5538 4.566C83.0764 4.23933 83.6598 4.076 84.3038 4.076C84.8544 4.076 85.3351 4.188 85.7458 4.412C86.1658 4.636 86.4878 4.93 86.7118 5.294V4.188H89.1058V12H86.7118V10.894C86.4784 11.258 86.1518 11.552 85.7318 11.776C85.3211 12 84.8404 12.112 84.2898 12.112C83.6551 12.112 83.0764 11.9487 82.5538 11.622C82.0311 11.286 81.6158 10.8147 81.3078 10.208C81.0091 9.592 80.8598 8.88267 80.8598 8.08ZM86.7118 8.094C86.7118 7.49667 86.5438 7.02533 86.2078 6.68C85.8811 6.33467 85.4798 6.162 85.0038 6.162C84.5278 6.162 84.1218 6.33467 83.7858 6.68C83.4591 7.016 83.2958 7.48267 83.2958 8.08C83.2958 8.67733 83.4591 9.15333 83.7858 9.508C84.1218 9.85333 84.5278 10.026 85.0038 10.026C85.4798 10.026 85.8811 9.85333 86.2078 9.508C86.5438 9.16267 86.7118 8.69133 86.7118 8.094ZM98.8177 4.188L93.9177 15.71H91.3417L93.1337 11.734L89.9557 4.188H92.6297L94.4357 9.074L96.2277 4.188H98.8177ZM99.2074 8.094C99.2074 7.282 99.3708 6.57267 99.6974 5.966C100.033 5.35933 100.495 4.89267 101.083 4.566C101.681 4.23933 102.362 4.076 103.127 4.076C104.107 4.076 104.924 4.33267 105.577 4.846C106.24 5.35933 106.674 6.08267 106.879 7.016H104.331C104.117 6.41867 103.701 6.12 103.085 6.12C102.647 6.12 102.297 6.29267 102.035 6.638C101.774 6.974 101.643 7.45933 101.643 8.094C101.643 8.72867 101.774 9.21867 102.035 9.564C102.297 9.9 102.647 10.068 103.085 10.068C103.701 10.068 104.117 9.76933 104.331 9.172H106.879C106.674 10.0867 106.24 10.8053 105.577 11.328C104.915 11.8507 104.098 12.112 103.127 12.112C102.362 12.112 101.681 11.9487 101.083 11.622C100.495 11.2953 100.033 10.8287 99.6974 10.222C99.3708 9.61533 99.2074 8.906 99.2074 8.094ZM107.684 8.08C107.684 7.27733 107.833 6.57267 108.132 5.966C108.44 5.35933 108.855 4.89267 109.378 4.566C109.901 4.23933 110.484 4.076 111.128 4.076C111.679 4.076 112.159 4.188 112.57 4.412C112.99 4.636 113.312 4.93 113.536 5.294V4.188H115.93V12H113.536V10.894C113.303 11.258 112.976 11.552 112.556 11.776C112.145 12 111.665 12.112 111.114 12.112C110.479 12.112 109.901 11.9487 109.378 11.622C108.855 11.286 108.44 10.8147 108.132 10.208C107.833 9.592 107.684 8.88267 107.684 8.08ZM113.536 8.094C113.536 7.49667 113.368 7.02533 113.032 6.68C112.705 6.33467 112.304 6.162 111.828 6.162C111.352 6.162 110.946 6.33467 110.61 6.68C110.283 7.016 110.12 7.48267 110.12 8.08C110.12 8.67733 110.283 9.15333 110.61 9.508C110.946 9.85333 111.352 10.026 111.828 10.026C112.304 10.026 112.705 9.85333 113.032 9.508C113.368 9.16267 113.536 8.69133 113.536 8.094ZM122.422 4.104C123.337 4.104 124.065 4.40267 124.606 5C125.157 5.588 125.432 6.4 125.432 7.436V12H123.052V7.758C123.052 7.23533 122.917 6.82933 122.646 6.54C122.375 6.25067 122.011 6.106 121.554 6.106C121.097 6.106 120.733 6.25067 120.462 6.54C120.191 6.82933 120.056 7.23533 120.056 7.758V12H117.662V4.188H120.056V5.224C120.299 4.87867 120.625 4.608 121.036 4.412C121.447 4.20667 121.909 4.104 122.422 4.104ZM135.074 12L133.03 8.29H132.456V12H130.062V2.172H134.08C134.855 2.172 135.513 2.30733 136.054 2.578C136.605 2.84867 137.016 3.222 137.286 3.698C137.557 4.16467 137.692 4.68733 137.692 5.266C137.692 5.91933 137.506 6.50267 137.132 7.016C136.768 7.52933 136.227 7.89333 135.508 8.108L137.776 12H135.074ZM132.456 6.596H133.94C134.379 6.596 134.706 6.48867 134.92 6.274C135.144 6.05933 135.256 5.756 135.256 5.364C135.256 4.99067 135.144 4.69667 134.92 4.482C134.706 4.26733 134.379 4.16 133.94 4.16H132.456V6.596ZM146.559 7.968C146.559 8.192 146.545 8.42533 146.517 8.668H141.099C141.136 9.15333 141.29 9.52667 141.561 9.788C141.841 10.04 142.182 10.166 142.583 10.166C143.18 10.166 143.596 9.914 143.829 9.41H146.377C146.246 9.92333 146.008 10.3853 145.663 10.796C145.327 11.2067 144.902 11.5287 144.389 11.762C143.876 11.9953 143.302 12.112 142.667 12.112C141.902 12.112 141.22 11.9487 140.623 11.622C140.026 11.2953 139.559 10.8287 139.223 10.222C138.887 9.61533 138.719 8.906 138.719 8.094C138.719 7.282 138.882 6.57267 139.209 5.966C139.545 5.35933 140.012 4.89267 140.609 4.566C141.206 4.23933 141.892 4.076 142.667 4.076C143.423 4.076 144.095 4.23467 144.683 4.552C145.271 4.86933 145.728 5.322 146.055 5.91C146.391 6.498 146.559 7.184 146.559 7.968ZM144.109 7.338C144.109 6.92733 143.969 6.60067 143.689 6.358C143.409 6.11533 143.059 5.994 142.639 5.994C142.238 5.994 141.897 6.11067 141.617 6.344C141.346 6.57733 141.178 6.90867 141.113 7.338H144.109ZM151 12.112C150.319 12.112 149.712 11.9953 149.18 11.762C148.648 11.5287 148.228 11.2113 147.92 10.81C147.612 10.3993 147.439 9.942 147.402 9.438H149.768C149.796 9.70867 149.922 9.928 150.146 10.096C150.37 10.264 150.645 10.348 150.972 10.348C151.271 10.348 151.499 10.292 151.658 10.18C151.826 10.0587 151.91 9.90467 151.91 9.718C151.91 9.494 151.793 9.33067 151.56 9.228C151.327 9.116 150.949 8.99467 150.426 8.864C149.866 8.73333 149.399 8.598 149.026 8.458C148.653 8.30867 148.331 8.08 148.06 7.772C147.789 7.45467 147.654 7.03 147.654 6.498C147.654 6.05 147.775 5.644 148.018 5.28C148.27 4.90667 148.634 4.61267 149.11 4.398C149.595 4.18333 150.169 4.076 150.832 4.076C151.812 4.076 152.582 4.31867 153.142 4.804C153.711 5.28933 154.038 5.93333 154.122 6.736H151.91C151.873 6.46533 151.751 6.25067 151.546 6.092C151.35 5.93333 151.089 5.854 150.762 5.854C150.482 5.854 150.267 5.91 150.118 6.022C149.969 6.12467 149.894 6.26933 149.894 6.456C149.894 6.68 150.011 6.848 150.244 6.96C150.487 7.072 150.86 7.184 151.364 7.296C151.943 7.44533 152.414 7.59467 152.778 7.744C153.142 7.884 153.459 8.11733 153.73 8.444C154.01 8.76133 154.155 9.19067 154.164 9.732C154.164 10.1893 154.033 10.6 153.772 10.964C153.52 11.3187 153.151 11.5987 152.666 11.804C152.19 12.0093 151.635 12.112 151 12.112ZM158.023 5.294C158.256 4.93 158.578 4.636 158.989 4.412C159.399 4.188 159.88 4.076 160.431 4.076C161.075 4.076 161.658 4.23933 162.181 4.566C162.703 4.89267 163.114 5.35933 163.413 5.966C163.721 6.57267 163.875 7.27733 163.875 8.08C163.875 8.88267 163.721 9.592 163.413 10.208C163.114 10.8147 162.703 11.286 162.181 11.622C161.658 11.9487 161.075 12.112 160.431 12.112C159.889 12.112 159.409 12 158.989 11.776C158.578 11.552 158.256 11.2627 158.023 10.908V15.724H155.629V4.188H158.023V5.294ZM161.439 8.08C161.439 7.48267 161.271 7.016 160.935 6.68C160.608 6.33467 160.202 6.162 159.717 6.162C159.241 6.162 158.835 6.33467 158.499 6.68C158.172 7.02533 158.009 7.49667 158.009 8.094C158.009 8.69133 158.172 9.16267 158.499 9.508C158.835 9.85333 159.241 10.026 159.717 10.026C160.193 10.026 160.599 9.85333 160.935 9.508C161.271 9.15333 161.439 8.67733 161.439 8.08ZM172.845 4.188V12H170.451V10.936C170.208 11.2813 169.877 11.5613 169.457 11.776C169.046 11.9813 168.589 12.084 168.085 12.084C167.487 12.084 166.96 11.9533 166.503 11.692C166.045 11.4213 165.691 11.034 165.439 10.53C165.187 10.026 165.061 9.43333 165.061 8.752V4.188H167.441V8.43C167.441 8.95267 167.576 9.35867 167.847 9.648C168.117 9.93733 168.481 10.082 168.939 10.082C169.405 10.082 169.774 9.93733 170.045 9.648C170.315 9.35867 170.451 8.95267 170.451 8.43V4.188H172.845ZM176.958 5.294C177.182 4.93 177.504 4.636 177.924 4.412C178.344 4.188 178.825 4.076 179.366 4.076C180.01 4.076 180.594 4.23933 181.116 4.566C181.639 4.89267 182.05 5.35933 182.348 5.966C182.656 6.57267 182.81 7.27733 182.81 8.08C182.81 8.88267 182.656 9.592 182.348 10.208C182.05 10.8147 181.639 11.286 181.116 11.622C180.594 11.9487 180.01 12.112 179.366 12.112C178.816 12.112 178.335 12.0047 177.924 11.79C177.514 11.566 177.192 11.272 176.958 10.908V12H174.564V1.64H176.958V5.294ZM180.374 8.08C180.374 7.48267 180.206 7.016 179.87 6.68C179.544 6.33467 179.138 6.162 178.652 6.162C178.176 6.162 177.77 6.33467 177.434 6.68C177.108 7.02533 176.944 7.49667 176.944 8.094C176.944 8.69133 177.108 9.16267 177.434 9.508C177.77 9.85333 178.176 10.026 178.652 10.026C179.128 10.026 179.534 9.85333 179.87 9.508C180.206 9.15333 180.374 8.67733 180.374 8.08ZM186.46 1.64V12H184.066V1.64H186.46ZM189.399 3.376C188.979 3.376 188.634 3.25467 188.363 3.012C188.102 2.76 187.971 2.452 187.971 2.088C187.971 1.71467 188.102 1.40667 188.363 1.164C188.634 0.911999 188.979 0.785999 189.399 0.785999C189.81 0.785999 190.146 0.911999 190.407 1.164C190.678 1.40667 190.813 1.71467 190.813 2.088C190.813 2.452 190.678 2.76 190.407 3.012C190.146 3.25467 189.81 3.376 189.399 3.376ZM190.589 4.188V12H188.195V4.188H190.589ZM197.098 12L194.718 8.724V12H192.324V1.64H194.718V7.366L197.084 4.188H200.038L196.79 8.108L200.066 12H197.098ZM200.502 8.08C200.502 7.27733 200.652 6.57267 200.95 5.966C201.258 5.35933 201.674 4.89267 202.196 4.566C202.719 4.23933 203.302 4.076 203.946 4.076C204.497 4.076 204.978 4.188 205.388 4.412C205.808 4.636 206.13 4.93 206.354 5.294V4.188H208.748V12H206.354V10.894C206.121 11.258 205.794 11.552 205.374 11.776C204.964 12 204.483 12.112 203.932 12.112C203.298 12.112 202.719 11.9487 202.196 11.622C201.674 11.286 201.258 10.8147 200.95 10.208C200.652 9.592 200.502 8.88267 200.502 8.08ZM206.354 8.094C206.354 7.49667 206.186 7.02533 205.85 6.68C205.524 6.33467 205.122 6.162 204.646 6.162C204.17 6.162 203.764 6.33467 203.428 6.68C203.102 7.016 202.938 7.48267 202.938 8.08C202.938 8.67733 203.102 9.15333 203.428 9.508C203.764 9.85333 204.17 10.026 204.646 10.026C205.122 10.026 205.524 9.85333 205.85 9.508C206.186 9.16267 206.354 8.69133 206.354 8.094ZM213.658 12.112C212.977 12.112 212.37 11.9953 211.838 11.762C211.306 11.5287 210.886 11.2113 210.578 10.81C210.27 10.3993 210.098 9.942 210.06 9.438H212.426C212.454 9.70867 212.58 9.928 212.804 10.096C213.028 10.264 213.304 10.348 213.63 10.348C213.929 10.348 214.158 10.292 214.316 10.18C214.484 10.0587 214.568 9.90467 214.568 9.718C214.568 9.494 214.452 9.33067 214.218 9.228C213.985 9.116 213.607 8.99467 213.084 8.864C212.524 8.73333 212.058 8.598 211.684 8.458C211.311 8.30867 210.989 8.08 210.718 7.772C210.448 7.45467 210.312 7.03 210.312 6.498C210.312 6.05 210.434 5.644 210.676 5.28C210.928 4.90667 211.292 4.61267 211.768 4.398C212.254 4.18333 212.828 4.076 213.49 4.076C214.47 4.076 215.24 4.31867 215.8 4.804C216.37 5.28933 216.696 5.93333 216.78 6.736H214.568C214.531 6.46533 214.41 6.25067 214.204 6.092C214.008 5.93333 213.747 5.854 213.42 5.854C213.14 5.854 212.926 5.91 212.776 6.022C212.627 6.12467 212.552 6.26933 212.552 6.456C212.552 6.68 212.669 6.848 212.902 6.96C213.145 7.072 213.518 7.184 214.022 7.296C214.601 7.44533 215.072 7.59467 215.436 7.744C215.8 7.884 216.118 8.11733 216.388 8.444C216.668 8.76133 216.813 9.19067 216.822 9.732C216.822 10.1893 216.692 10.6 216.43 10.964C216.178 11.3187 215.81 11.5987 215.324 11.804C214.848 12.0093 214.293 12.112 213.658 12.112ZM220.863 4.188V12H218.469V4.188H220.863ZM6.11585 27.96C6.68519 28.0813 7.14252 28.366 7.48785 28.814C7.83319 29.2527 8.00585 29.7567 8.00585 30.326C8.00585 31.1473 7.71652 31.8007 7.13785 32.286C6.56852 32.762 5.77052 33 4.74385 33H0.165852V23.172H4.58985C5.58852 23.172 6.36785 23.4007 6.92785 23.858C7.49719 24.3153 7.78185 24.936 7.78185 25.72C7.78185 26.2987 7.62785 26.7793 7.31985 27.162C7.02119 27.5447 6.61985 27.8107 6.11585 27.96ZM2.55985 27.148H4.12785C4.51985 27.148 4.81852 27.064 5.02385 26.896C5.23852 26.7187 5.34585 26.462 5.34585 26.126C5.34585 25.79 5.23852 25.5333 5.02385 25.356C4.81852 25.1787 4.51985 25.09 4.12785 25.09H2.55985V27.148ZM4.32385 31.068C4.72519 31.068 5.03319 30.9793 5.24785 30.802C5.47185 30.6153 5.58385 30.3493 5.58385 30.004C5.58385 29.6587 5.46719 29.388 5.23385 29.192C5.00985 28.996 4.69719 28.898 4.29585 28.898H2.55985V31.068H4.32385ZM12.9504 33.112C12.185 33.112 11.4944 32.9487 10.8784 32.622C10.2717 32.2953 9.79103 31.8287 9.43637 31.222C9.09103 30.6153 8.91837 29.906 8.91837 29.094C8.91837 28.2913 9.0957 27.5867 9.45037 26.98C9.80503 26.364 10.2904 25.8927 10.9064 25.566C11.5224 25.2393 12.213 25.076 12.9784 25.076C13.7437 25.076 14.4344 25.2393 15.0504 25.566C15.6664 25.8927 16.1517 26.364 16.5064 26.98C16.861 27.5867 17.0384 28.2913 17.0384 29.094C17.0384 29.8967 16.8564 30.606 16.4924 31.222C16.1377 31.8287 15.6477 32.2953 15.0224 32.622C14.4064 32.9487 13.7157 33.112 12.9504 33.112ZM12.9504 31.04C13.4077 31.04 13.795 30.872 14.1124 30.536C14.439 30.2 14.6024 29.7193 14.6024 29.094C14.6024 28.4687 14.4437 27.988 14.1264 27.652C13.8184 27.316 13.4357 27.148 12.9784 27.148C12.5117 27.148 12.1244 27.316 11.8164 27.652C11.5084 27.9787 11.3544 28.4593 11.3544 29.094C11.3544 29.7193 11.5037 30.2 11.8024 30.536C12.1104 30.872 12.493 31.04 12.9504 31.04ZM11.7604 24.264C11.471 24.264 11.2284 24.166 11.0324 23.97C10.8364 23.774 10.7384 23.5313 10.7384 23.242C10.7384 22.9527 10.8364 22.71 11.0324 22.514C11.2284 22.3087 11.471 22.206 11.7604 22.206C12.059 22.206 12.3064 22.304 12.5024 22.5C12.6984 22.696 12.7964 22.9433 12.7964 23.242C12.7964 23.5313 12.6937 23.774 12.4884 23.97C12.2924 24.166 12.0497 24.264 11.7604 24.264ZM14.5604 24.264C14.271 24.264 14.0284 24.166 13.8324 23.97C13.6364 23.774 13.5384 23.5313 13.5384 23.242C13.5384 22.9527 13.6364 22.71 13.8324 22.514C14.0284 22.3087 14.271 22.206 14.5604 22.206C14.859 22.206 15.1064 22.304 15.3024 22.5C15.4984 22.696 15.5964 22.9433 15.5964 23.242C15.5964 23.5313 15.4937 23.774 15.2884 23.97C15.0924 24.166 14.8497 24.264 14.5604 24.264ZM26.2884 25.188L21.3884 36.71H18.8124L20.6044 32.734L17.4264 25.188H20.1004L21.9064 30.074L23.6984 25.188H26.2884ZM29.5481 26.49C29.8281 26.0607 30.1781 25.7247 30.5981 25.482C31.0181 25.23 31.4848 25.104 31.9981 25.104V27.638H31.3401C30.7428 27.638 30.2948 27.7687 29.9961 28.03C29.6975 28.282 29.5481 28.73 29.5481 29.374V33H27.1541V25.188H29.5481V26.49ZM36.5584 25.076C37.3237 25.076 38.0051 25.2393 38.6024 25.566C39.1997 25.8927 39.6664 26.3593 40.0024 26.966C40.3384 27.5727 40.5064 28.282 40.5064 29.094C40.5064 29.906 40.3384 30.6153 40.0024 31.222C39.6757 31.8287 39.2137 32.2953 38.6164 32.622C38.0191 32.9487 37.3331 33.112 36.5584 33.112C35.8024 33.112 35.1304 32.9533 34.5424 32.636C33.9544 32.3187 33.4924 31.866 33.1564 31.278C32.8297 30.69 32.6664 30.004 32.6664 29.22C32.6664 28.9867 32.6804 28.7533 32.7084 28.52H38.1264C38.0891 28.0347 37.9304 27.666 37.6504 27.414C37.3797 27.1527 37.0437 27.022 36.6424 27.022C36.0451 27.022 35.6297 27.274 35.3964 27.778H32.8484C32.9791 27.2647 33.2124 26.8027 33.5484 26.392C33.8937 25.9813 34.3231 25.6593 34.8364 25.426C35.3497 25.1927 35.9237 25.076 36.5584 25.076ZM36.5864 31.194C36.9877 31.194 37.3237 31.0773 37.5944 30.844C37.8744 30.6107 38.0471 30.2793 38.1124 29.85H35.1164C35.1164 30.2607 35.2564 30.5873 35.5364 30.83C35.8164 31.0727 36.1664 31.194 36.5864 31.194ZM46.5434 33L44.1634 29.724V33H41.7694V22.64H44.1634V28.366L46.5294 25.188H49.4834L46.2354 29.108L49.5114 33H46.5434ZM60.4605 23.172V25.09H57.8565V33H55.4625V25.09H52.8585V23.172H60.4605ZM64.0559 26.49C64.3359 26.0607 64.6859 25.7247 65.1059 25.482C65.5259 25.23 65.9926 25.104 66.5059 25.104V27.638H65.8479C65.2506 27.638 64.8026 27.7687 64.5039 28.03C64.2053 28.282 64.0559 28.73 64.0559 29.374V33H61.6619V25.188H64.0559V26.49ZM67.1742 29.08C67.1742 28.2773 67.3236 27.5727 67.6222 26.966C67.9302 26.3593 68.3456 25.8927 68.8682 25.566C69.3909 25.2393 69.9742 25.076 70.6182 25.076C71.1689 25.076 71.6496 25.188 72.0602 25.412C72.4802 25.636 72.8022 25.93 73.0262 26.294V25.188H75.4202V33H73.0262V31.894C72.7929 32.258 72.4662 32.552 72.0462 32.776C71.6356 33 71.1549 33.112 70.6042 33.112C69.9696 33.112 69.3909 32.9487 68.8682 32.622C68.3456 32.286 67.9302 31.8147 67.6222 31.208C67.3236 30.592 67.1742 29.8827 67.1742 29.08ZM73.0262 29.094C73.0262 28.4967 72.8582 28.0253 72.5222 27.68C72.1956 27.3347 71.7942 27.162 71.3182 27.162C70.8422 27.162 70.4362 27.3347 70.1002 27.68C69.7736 28.016 69.6102 28.4827 69.6102 29.08C69.6102 29.6773 69.7736 30.1533 70.1002 30.508C70.4362 30.8533 70.8422 31.026 71.3182 31.026C71.7942 31.026 72.1956 30.8533 72.5222 30.508C72.8582 30.1627 73.0262 29.6913 73.0262 29.094ZM81.9122 25.104C82.8268 25.104 83.5548 25.4027 84.0962 26C84.6468 26.588 84.9222 27.4 84.9222 28.436V33H82.5422V28.758C82.5422 28.2353 82.4068 27.8293 82.1362 27.54C81.8655 27.2507 81.5015 27.106 81.0442 27.106C80.5868 27.106 80.2228 27.2507 79.9522 27.54C79.6815 27.8293 79.5462 28.2353 79.5462 28.758V33H77.1522V25.188H79.5462V26.224C79.7888 25.8787 80.1155 25.608 80.5262 25.412C80.9368 25.2067 81.3988 25.104 81.9122 25.104ZM89.7638 33.112C89.0824 33.112 88.4758 32.9953 87.9438 32.762C87.4118 32.5287 86.9918 32.2113 86.6838 31.81C86.3758 31.3993 86.2031 30.942 86.1658 30.438H88.5318C88.5598 30.7087 88.6858 30.928 88.9098 31.096C89.1338 31.264 89.4091 31.348 89.7358 31.348C90.0344 31.348 90.2631 31.292 90.4218 31.18C90.5898 31.0587 90.6738 30.9047 90.6738 30.718C90.6738 30.494 90.5571 30.3307 90.3238 30.228C90.0904 30.116 89.7124 29.9947 89.1898 29.864C88.6298 29.7333 88.1631 29.598 87.7898 29.458C87.4164 29.3087 87.0944 29.08 86.8238 28.772C86.5531 28.4547 86.4178 28.03 86.4178 27.498C86.4178 27.05 86.5391 26.644 86.7818 26.28C87.0338 25.9067 87.3978 25.6127 87.8738 25.398C88.3591 25.1833 88.9331 25.076 89.5958 25.076C90.5758 25.076 91.3458 25.3187 91.9058 25.804C92.4751 26.2893 92.8018 26.9333 92.8858 27.736H90.6738C90.6364 27.4653 90.5151 27.2507 90.3098 27.092C90.1138 26.9333 89.8524 26.854 89.5258 26.854C89.2458 26.854 89.0311 26.91 88.8818 27.022C88.7324 27.1247 88.6578 27.2693 88.6578 27.456C88.6578 27.68 88.7744 27.848 89.0078 27.96C89.2504 28.072 89.6238 28.184 90.1278 28.296C90.7064 28.4453 91.1778 28.5947 91.5418 28.744C91.9058 28.884 92.2231 29.1173 92.4938 29.444C92.7738 29.7613 92.9184 30.1907 92.9278 30.732C92.9278 31.1893 92.7971 31.6 92.5358 31.964C92.2838 32.3187 91.9151 32.5987 91.4298 32.804C90.9538 33.0093 90.3984 33.112 89.7638 33.112ZM96.7864 26.294C97.0197 25.93 97.3417 25.636 97.7524 25.412C98.1631 25.188 98.6437 25.076 99.1944 25.076C99.8384 25.076 100.422 25.2393 100.944 25.566C101.467 25.8927 101.878 26.3593 102.176 26.966C102.484 27.5727 102.638 28.2773 102.638 29.08C102.638 29.8827 102.484 30.592 102.176 31.208C101.878 31.8147 101.467 32.286 100.944 32.622C100.422 32.9487 99.8384 33.112 99.1944 33.112C98.6531 33.112 98.1724 33 97.7524 32.776C97.3417 32.552 97.0197 32.2627 96.7864 31.908V36.724H94.3924V25.188H96.7864V26.294ZM100.202 29.08C100.202 28.4827 100.034 28.016 99.6984 27.68C99.3717 27.3347 98.9657 27.162 98.4804 27.162C98.0044 27.162 97.5984 27.3347 97.2624 27.68C96.9357 28.0253 96.7724 28.4967 96.7724 29.094C96.7724 29.6913 96.9357 30.1627 97.2624 30.508C97.5984 30.8533 98.0044 31.026 98.4804 31.026C98.9564 31.026 99.3624 30.8533 99.6984 30.508C100.034 30.1533 100.202 29.6773 100.202 29.08ZM106.288 22.64V33H103.894V22.64H106.288ZM107.547 29.08C107.547 28.2773 107.697 27.5727 107.995 26.966C108.303 26.3593 108.719 25.8927 109.241 25.566C109.764 25.2393 110.347 25.076 110.991 25.076C111.542 25.076 112.023 25.188 112.433 25.412C112.853 25.636 113.175 25.93 113.399 26.294V25.188H115.793V33H113.399V31.894C113.166 32.258 112.839 32.552 112.419 32.776C112.009 33 111.528 33.112 110.977 33.112C110.343 33.112 109.764 32.9487 109.241 32.622C108.719 32.286 108.303 31.8147 107.995 31.208C107.697 30.592 107.547 29.8827 107.547 29.08ZM113.399 29.094C113.399 28.4967 113.231 28.0253 112.895 27.68C112.569 27.3347 112.167 27.162 111.691 27.162C111.215 27.162 110.809 27.3347 110.473 27.68C110.147 28.016 109.983 28.4827 109.983 29.08C109.983 29.6773 110.147 30.1533 110.473 30.508C110.809 30.8533 111.215 31.026 111.691 31.026C112.167 31.026 112.569 30.8533 112.895 30.508C113.231 30.1627 113.399 29.6913 113.399 29.094ZM122.285 25.104C123.2 25.104 123.928 25.4027 124.469 26C125.02 26.588 125.295 27.4 125.295 28.436V33H122.915V28.758C122.915 28.2353 122.78 27.8293 122.509 27.54C122.239 27.2507 121.875 27.106 121.417 27.106C120.96 27.106 120.596 27.2507 120.325 27.54C120.055 27.8293 119.919 28.2353 119.919 28.758V33H117.525V25.188H119.919V26.224C120.162 25.8787 120.489 25.608 120.899 25.412C121.31 25.2067 121.772 25.104 122.285 25.104ZM131.313 30.97V33H130.095C129.227 33 128.55 32.79 128.065 32.37C127.579 31.9407 127.337 31.2453 127.337 30.284V27.176H126.385V25.188H127.337V23.284H129.731V25.188H131.299V27.176H129.731V30.312C129.731 30.5453 129.787 30.7133 129.899 30.816C130.011 30.9187 130.197 30.97 130.459 30.97H131.313ZM132.17 29.08C132.17 28.2773 132.32 27.5727 132.618 26.966C132.926 26.3593 133.342 25.8927 133.864 25.566C134.387 25.2393 134.97 25.076 135.614 25.076C136.165 25.076 136.646 25.188 137.056 25.412C137.476 25.636 137.798 25.93 138.022 26.294V25.188H140.416V33H138.022V31.894C137.789 32.258 137.462 32.552 137.042 32.776C136.632 33 136.151 33.112 135.6 33.112C134.966 33.112 134.387 32.9487 133.864 32.622C133.342 32.286 132.926 31.8147 132.618 31.208C132.32 30.592 132.17 29.8827 132.17 29.08ZM138.022 29.094C138.022 28.4967 137.854 28.0253 137.518 27.68C137.192 27.3347 136.79 27.162 136.314 27.162C135.838 27.162 135.432 27.3347 135.096 27.68C134.77 28.016 134.606 28.4827 134.606 29.08C134.606 29.6773 134.77 30.1533 135.096 30.508C135.432 30.8533 135.838 31.026 136.314 31.026C136.79 31.026 137.192 30.8533 137.518 30.508C137.854 30.1627 138.022 29.6913 138.022 29.094ZM145.326 33.112C144.645 33.112 144.038 32.9953 143.506 32.762C142.974 32.5287 142.554 32.2113 142.246 31.81C141.938 31.3993 141.766 30.942 141.728 30.438H144.094C144.122 30.7087 144.248 30.928 144.472 31.096C144.696 31.264 144.972 31.348 145.298 31.348C145.597 31.348 145.826 31.292 145.984 31.18C146.152 31.0587 146.236 30.9047 146.236 30.718C146.236 30.494 146.12 30.3307 145.886 30.228C145.653 30.116 145.275 29.9947 144.752 29.864C144.192 29.7333 143.726 29.598 143.352 29.458C142.979 29.3087 142.657 29.08 142.386 28.772C142.116 28.4547 141.98 28.03 141.98 27.498C141.98 27.05 142.102 26.644 142.344 26.28C142.596 25.9067 142.96 25.6127 143.436 25.398C143.922 25.1833 144.496 25.076 145.158 25.076C146.138 25.076 146.908 25.3187 147.468 25.804C148.038 26.2893 148.364 26.9333 148.448 27.736H146.236C146.199 27.4653 146.078 27.2507 145.872 27.092C145.676 26.9333 145.415 26.854 145.088 26.854C144.808 26.854 144.594 26.91 144.444 27.022C144.295 27.1247 144.22 27.2693 144.22 27.456C144.22 27.68 144.337 27.848 144.57 27.96C144.813 28.072 145.186 28.184 145.69 28.296C146.269 28.4453 146.74 28.5947 147.104 28.744C147.468 28.884 147.786 29.1173 148.056 29.444C148.336 29.7613 148.481 30.1907 148.49 30.732C148.49 31.1893 148.36 31.6 148.098 31.964C147.846 32.3187 147.478 32.5987 146.992 32.804C146.516 33.0093 145.961 33.112 145.326 33.112ZM151.159 24.376C150.739 24.376 150.394 24.2547 150.123 24.012C149.862 23.76 149.731 23.452 149.731 23.088C149.731 22.7147 149.862 22.4067 150.123 22.164C150.394 21.912 150.739 21.786 151.159 21.786C151.57 21.786 151.906 21.912 152.167 22.164C152.438 22.4067 152.573 22.7147 152.573 23.088C152.573 23.452 152.438 23.76 152.167 24.012C151.906 24.2547 151.57 24.376 151.159 24.376ZM152.349 25.188V33H149.955V25.188H152.349ZM162.064 25.188L157.164 36.71H154.588L156.38 32.734L153.202 25.188H155.876L157.682 30.074L159.474 25.188H162.064ZM162.454 29.08C162.454 28.2773 162.603 27.5727 162.902 26.966C163.21 26.3593 163.625 25.8927 164.148 25.566C164.67 25.2393 165.254 25.076 165.898 25.076C166.448 25.076 166.929 25.188 167.34 25.412C167.76 25.636 168.082 25.93 168.306 26.294V25.188H170.7V33H168.306V31.894C168.072 32.258 167.746 32.552 167.326 32.776C166.915 33 166.434 33.112 165.884 33.112C165.249 33.112 164.67 32.9487 164.148 32.622C163.625 32.286 163.21 31.8147 162.902 31.208C162.603 30.592 162.454 29.8827 162.454 29.08ZM168.306 29.094C168.306 28.4967 168.138 28.0253 167.802 27.68C167.475 27.3347 167.074 27.162 166.598 27.162C166.122 27.162 165.716 27.3347 165.38 27.68C165.053 28.016 164.89 28.4827 164.89 29.08C164.89 29.6773 165.053 30.1533 165.38 30.508C165.716 30.8533 166.122 31.026 166.598 31.026C167.074 31.026 167.475 30.8533 167.802 30.508C168.138 30.1627 168.306 29.6913 168.306 29.094ZM175.609 33.112C174.928 33.112 174.321 32.9953 173.789 32.762C173.257 32.5287 172.837 32.2113 172.529 31.81C172.221 31.3993 172.049 30.942 172.011 30.438H174.377C174.405 30.7087 174.531 30.928 174.755 31.096C174.979 31.264 175.255 31.348 175.581 31.348C175.88 31.348 176.109 31.292 176.267 31.18C176.435 31.0587 176.519 30.9047 176.519 30.718C176.519 30.494 176.403 30.3307 176.169 30.228C175.936 30.116 175.558 29.9947 175.035 29.864C174.475 29.7333 174.009 29.598 173.635 29.458C173.262 29.3087 172.94 29.08 172.669 28.772C172.399 28.4547 172.263 28.03 172.263 27.498C172.263 27.05 172.385 26.644 172.627 26.28C172.879 25.9067 173.243 25.6127 173.719 25.398C174.205 25.1833 174.779 25.076 175.441 25.076C176.421 25.076 177.191 25.3187 177.751 25.804C178.321 26.2893 178.647 26.9333 178.731 27.736H176.519C176.482 27.4653 176.361 27.2507 176.155 27.092C175.959 26.9333 175.698 26.854 175.371 26.854C175.091 26.854 174.877 26.91 174.727 27.022C174.578 27.1247 174.503 27.2693 174.503 27.456C174.503 27.68 174.62 27.848 174.853 27.96C175.096 28.072 175.469 28.184 175.973 28.296C176.552 28.4453 177.023 28.5947 177.387 28.744C177.751 28.884 178.069 29.1173 178.339 29.444C178.619 29.7613 178.764 30.1907 178.773 30.732C178.773 31.1893 178.643 31.6 178.381 31.964C178.129 32.3187 177.761 32.5987 177.275 32.804C176.799 33.0093 176.244 33.112 175.609 33.112ZM182.814 25.188V33H180.42V25.188H182.814ZM190.881 33.112C190.2 33.112 189.593 32.9953 189.061 32.762C188.529 32.5287 188.109 32.2113 187.801 31.81C187.493 31.3993 187.32 30.942 187.283 30.438H189.649C189.677 30.7087 189.803 30.928 190.027 31.096C190.251 31.264 190.526 31.348 190.853 31.348C191.152 31.348 191.38 31.292 191.539 31.18C191.707 31.0587 191.791 30.9047 191.791 30.718C191.791 30.494 191.674 30.3307 191.441 30.228C191.208 30.116 190.83 29.9947 190.307 29.864C189.747 29.7333 189.28 29.598 188.907 29.458C188.534 29.3087 188.212 29.08 187.941 28.772C187.67 28.4547 187.535 28.03 187.535 27.498C187.535 27.05 187.656 26.644 187.899 26.28C188.151 25.9067 188.515 25.6127 188.991 25.398C189.476 25.1833 190.05 25.076 190.713 25.076C191.693 25.076 192.463 25.3187 193.023 25.804C193.592 26.2893 193.919 26.9333 194.003 27.736H191.791C191.754 27.4653 191.632 27.2507 191.427 27.092C191.231 26.9333 190.97 26.854 190.643 26.854C190.363 26.854 190.148 26.91 189.999 27.022C189.85 27.1247 189.775 27.2693 189.775 27.456C189.775 27.68 189.892 27.848 190.125 27.96C190.368 28.072 190.741 28.184 191.245 28.296C191.824 28.4453 192.295 28.5947 192.659 28.744C193.023 28.884 193.34 29.1173 193.611 29.444C193.891 29.7613 194.036 30.1907 194.045 30.732C194.045 31.1893 193.914 31.6 193.653 31.964C193.401 32.3187 193.032 32.5987 192.547 32.804C192.071 33.0093 191.516 33.112 190.881 33.112ZM195.034 29.08C195.034 28.2773 195.183 27.5727 195.482 26.966C195.79 26.3593 196.205 25.8927 196.728 25.566C197.25 25.2393 197.834 25.076 198.478 25.076C199.028 25.076 199.509 25.188 199.92 25.412C200.34 25.636 200.662 25.93 200.886 26.294V25.188H203.28V33H200.886V31.894C200.652 32.258 200.326 32.552 199.906 32.776C199.495 33 199.014 33.112 198.464 33.112C197.829 33.112 197.25 32.9487 196.728 32.622C196.205 32.286 195.79 31.8147 195.482 31.208C195.183 30.592 195.034 29.8827 195.034 29.08ZM200.886 29.094C200.886 28.4967 200.718 28.0253 200.382 27.68C200.055 27.3347 199.654 27.162 199.178 27.162C198.702 27.162 198.296 27.3347 197.96 27.68C197.633 28.016 197.47 28.4827 197.47 29.08C197.47 29.6773 197.633 30.1533 197.96 30.508C198.296 30.8533 198.702 31.026 199.178 31.026C199.654 31.026 200.055 30.8533 200.382 30.508C200.718 30.1627 200.886 29.6913 200.886 29.094ZM209.814 25.104C210.71 25.104 211.428 25.4027 211.97 26C212.511 26.588 212.782 27.4 212.782 28.436V33H210.402V28.758C210.402 28.2353 210.266 27.8293 209.996 27.54C209.725 27.2507 209.361 27.106 208.904 27.106C208.446 27.106 208.082 27.2507 207.812 27.54C207.541 27.8293 207.406 28.2353 207.406 28.758V33H205.012V22.64H207.406V26.238C207.648 25.8927 207.98 25.6173 208.4 25.412C208.82 25.2067 209.291 25.104 209.814 25.104ZM217.861 25.076C218.626 25.076 219.308 25.2393 219.905 25.566C220.502 25.8927 220.969 26.3593 221.305 26.966C221.641 27.5727 221.809 28.282 221.809 29.094C221.809 29.906 221.641 30.6153 221.305 31.222C220.978 31.8287 220.516 32.2953 219.919 32.622C219.322 32.9487 218.636 33.112 217.861 33.112C217.105 33.112 216.433 32.9533 215.845 32.636C215.257 32.3187 214.795 31.866 214.459 31.278C214.132 30.69 213.969 30.004 213.969 29.22C213.969 28.9867 213.983 28.7533 214.011 28.52H219.429C219.392 28.0347 219.233 27.666 218.953 27.414C218.682 27.1527 218.346 27.022 217.945 27.022C217.348 27.022 216.932 27.274 216.699 27.778H214.151C214.282 27.2647 214.515 26.8027 214.851 26.392C215.196 25.9813 215.626 25.6593 216.139 25.426C216.652 25.1927 217.226 25.076 217.861 25.076ZM217.889 31.194C218.29 31.194 218.626 31.0773 218.897 30.844C219.177 30.6107 219.35 30.2793 219.415 29.85H216.419C216.419 30.2607 216.559 30.5873 216.839 30.83C217.119 31.0727 217.469 31.194 217.889 31.194ZM226.25 33.112C225.569 33.112 224.962 32.9953 224.43 32.762C223.898 32.5287 223.478 32.2113 223.17 31.81C222.862 31.3993 222.689 30.942 222.652 30.438H225.018C225.046 30.7087 225.172 30.928 225.396 31.096C225.62 31.264 225.895 31.348 226.222 31.348C226.521 31.348 226.749 31.292 226.908 31.18C227.076 31.0587 227.16 30.9047 227.16 30.718C227.16 30.494 227.043 30.3307 226.81 30.228C226.577 30.116 226.199 29.9947 225.676 29.864C225.116 29.7333 224.649 29.598 224.276 29.458C223.903 29.3087 223.581 29.08 223.31 28.772C223.039 28.4547 222.904 28.03 222.904 27.498C222.904 27.05 223.025 26.644 223.268 26.28C223.52 25.9067 223.884 25.6127 224.36 25.398C224.845 25.1833 225.419 25.076 226.082 25.076C227.062 25.076 227.832 25.3187 228.392 25.804C228.961 26.2893 229.288 26.9333 229.372 27.736H227.16C227.123 27.4653 227.001 27.2507 226.796 27.092C226.6 26.9333 226.339 26.854 226.012 26.854C225.732 26.854 225.517 26.91 225.368 27.022C225.219 27.1247 225.144 27.2693 225.144 27.456C225.144 27.68 225.261 27.848 225.494 27.96C225.737 28.072 226.11 28.184 226.614 28.296C227.193 28.4453 227.664 28.5947 228.028 28.744C228.392 28.884 228.709 29.1173 228.98 29.444C229.26 29.7613 229.405 30.1907 229.414 30.732C229.414 31.1893 229.283 31.6 229.022 31.964C228.77 32.3187 228.401 32.5987 227.916 32.804C227.44 33.0093 226.885 33.112 226.25 33.112ZM232.083 24.376C231.663 24.376 231.317 24.2547 231.047 24.012C230.785 23.76 230.655 23.452 230.655 23.088C230.655 22.7147 230.785 22.4067 231.047 22.164C231.317 21.912 231.663 21.786 232.083 21.786C232.493 21.786 232.829 21.912 233.091 22.164C233.361 22.4067 233.497 22.7147 233.497 23.088C233.497 23.452 233.361 23.76 233.091 24.012C232.829 24.2547 232.493 24.376 232.083 24.376ZM233.273 25.188V33H230.879V25.188H233.273ZM239.768 25.104C240.682 25.104 241.41 25.4027 241.952 26C242.502 26.588 242.778 27.4 242.778 28.436V33H240.398V28.758C240.398 28.2353 240.262 27.8293 239.992 27.54C239.721 27.2507 239.357 27.106 238.9 27.106C238.442 27.106 238.078 27.2507 237.808 27.54C237.537 27.8293 237.402 28.2353 237.402 28.758V33H235.008V25.188H237.402V26.224C237.644 25.8787 237.971 25.608 238.382 25.412C238.792 25.2067 239.254 25.104 239.768 25.104ZM243.965 29.08C243.965 28.2773 244.115 27.5727 244.413 26.966C244.721 26.3593 245.137 25.8927 245.659 25.566C246.182 25.2393 246.765 25.076 247.409 25.076C247.923 25.076 248.389 25.1833 248.809 25.398C249.239 25.6127 249.575 25.902 249.817 26.266V22.64H252.211V33H249.817V31.88C249.593 32.2533 249.271 32.552 248.851 32.776C248.441 33 247.96 33.112 247.409 33.112C246.765 33.112 246.182 32.9487 245.659 32.622C245.137 32.286 244.721 31.8147 244.413 31.208C244.115 30.592 243.965 29.8827 243.965 29.08ZM249.817 29.094C249.817 28.4967 249.649 28.0253 249.313 27.68C248.987 27.3347 248.585 27.162 248.109 27.162C247.633 27.162 247.227 27.3347 246.891 27.68C246.565 28.016 246.401 28.4827 246.401 29.08C246.401 29.6773 246.565 30.1533 246.891 30.508C247.227 30.8533 247.633 31.026 248.109 31.026C248.585 31.026 248.987 30.8533 249.313 30.508C249.649 30.1627 249.817 29.6913 249.817 29.094ZM257.359 25.076C258.125 25.076 258.806 25.2393 259.403 25.566C260.001 25.8927 260.467 26.3593 260.803 26.966C261.139 27.5727 261.307 28.282 261.307 29.094C261.307 29.906 261.139 30.6153 260.803 31.222C260.477 31.8287 260.015 32.2953 259.417 32.622C258.82 32.9487 258.134 33.112 257.359 33.112C256.603 33.112 255.931 32.9533 255.343 32.636C254.755 32.3187 254.293 31.866 253.957 31.278C253.631 30.69 253.467 30.004 253.467 29.22C253.467 28.9867 253.481 28.7533 253.509 28.52H258.927C258.89 28.0347 258.731 27.666 258.451 27.414C258.181 27.1527 257.845 27.022 257.443 27.022C256.846 27.022 256.431 27.274 256.197 27.778H253.649C253.78 27.2647 254.013 26.8027 254.349 26.392C254.695 25.9813 255.124 25.6593 255.637 25.426C256.151 25.1927 256.725 25.076 257.359 25.076ZM257.387 31.194C257.789 31.194 258.125 31.0773 258.395 30.844C258.675 30.6107 258.848 30.2793 258.913 29.85H255.917C255.917 30.2607 256.057 30.5873 256.337 30.83C256.617 31.0727 256.967 31.194 257.387 31.194ZM37.2793 44.172V54H34.8853V48.106L32.6873 54H30.7553L28.5433 48.092V54H26.1493V44.172H28.9772L31.7353 50.976L34.4653 44.172H37.2793ZM46.7148 46.188V54H44.3208V52.936C44.0781 53.2813 43.7468 53.5613 43.3268 53.776C42.9161 53.9813 42.4588 54.084 41.9548 54.084C41.3575 54.084 40.8301 53.9533 40.3728 53.692C39.9155 53.4213 39.5608 53.034 39.3088 52.53C39.0568 52.026 38.9308 51.4333 38.9308 50.752V46.188H41.3108V50.43C41.3108 50.9527 41.4461 51.3587 41.7168 51.648C41.9875 51.9373 42.3515 52.082 42.8088 52.082C43.2755 52.082 43.6441 51.9373 43.9148 51.648C44.1855 51.3587 44.3208 50.9527 44.3208 50.43V46.188H46.7148ZM41.4508 45.32C41.1615 45.32 40.9188 45.222 40.7228 45.026C40.5268 44.83 40.4288 44.5873 40.4288 44.298C40.4288 44.0087 40.5268 43.766 40.7228 43.57C40.9188 43.3647 41.1615 43.262 41.4508 43.262C41.7495 43.262 41.9968 43.36 42.1928 43.556C42.3888 43.752 42.4868 43.9993 42.4868 44.298C42.4868 44.5873 42.3841 44.83 42.1788 45.026C41.9828 45.222 41.7401 45.32 41.4508 45.32ZM44.2508 45.32C43.9615 45.32 43.7188 45.222 43.5228 45.026C43.3268 44.83 43.2288 44.5873 43.2288 44.298C43.2288 44.0087 43.3268 43.766 43.5228 43.57C43.7188 43.3647 43.9615 43.262 44.2508 43.262C44.5495 43.262 44.7968 43.36 44.9928 43.556C45.1888 43.752 45.2868 43.9993 45.2868 44.298C45.2868 44.5873 45.1841 44.83 44.9788 45.026C44.7828 45.222 44.5401 45.32 44.2508 45.32ZM52.7884 51.97V54H51.5704C50.7024 54 50.0257 53.79 49.5404 53.37C49.0551 52.9407 48.8124 52.2453 48.8124 51.284V48.176H47.8604V46.188H48.8124V44.284H51.2064V46.188H52.7744V48.176H51.2064V51.312C51.2064 51.5453 51.2624 51.7133 51.3744 51.816C51.4864 51.9187 51.6731 51.97 51.9344 51.97H52.7884ZM57.5379 46.076C58.3032 46.076 58.9846 46.2393 59.5819 46.566C60.1792 46.8927 60.6459 47.3593 60.9819 47.966C61.3179 48.5727 61.4859 49.282 61.4859 50.094C61.4859 50.906 61.3179 51.6153 60.9819 52.222C60.6552 52.8287 60.1932 53.2953 59.5959 53.622C58.9986 53.9487 58.3126 54.112 57.5379 54.112C56.7819 54.112 56.1099 53.9533 55.5219 53.636C54.9339 53.3187 54.4719 52.866 54.1359 52.278C53.8092 51.69 53.6459 51.004 53.6459 50.22C53.6459 49.9867 53.6599 49.7533 53.6879 49.52H59.1059C59.0686 49.0347 58.9099 48.666 58.6299 48.414C58.3592 48.1527 58.0232 48.022 57.6219 48.022C57.0246 48.022 56.6092 48.274 56.3759 48.778H53.8279C53.9586 48.2647 54.1919 47.8027 54.5279 47.392C54.8732 46.9813 55.3026 46.6593 55.8159 46.426C56.3292 46.1927 56.9032 46.076 57.5379 46.076ZM57.5659 52.194C57.9672 52.194 58.3032 52.0773 58.5739 51.844C58.8539 51.6107 59.0266 51.2793 59.0919 50.85H56.0959C56.0959 51.2607 56.2359 51.5873 56.5159 51.83C56.7959 52.0727 57.1459 52.194 57.5659 52.194ZM67.3689 54L65.8709 51.83L64.6109 54H62.0209L64.5969 50.01L61.9509 46.188H64.6389L66.1369 48.344L67.3969 46.188H69.9869L67.3689 50.122L70.0569 54H67.3689ZM74.3953 46.076C75.1607 46.076 75.842 46.2393 76.4393 46.566C77.0367 46.8927 77.5033 47.3593 77.8393 47.966C78.1753 48.5727 78.3433 49.282 78.3433 50.094C78.3433 50.906 78.1753 51.6153 77.8393 52.222C77.5127 52.8287 77.0507 53.2953 76.4533 53.622C75.856 53.9487 75.17 54.112 74.3953 54.112C73.6393 54.112 72.9673 53.9533 72.3793 53.636C71.7913 53.3187 71.3293 52.866 70.9933 52.278C70.6667 51.69 70.5033 51.004 70.5033 50.22C70.5033 49.9867 70.5173 49.7533 70.5453 49.52H75.9633C75.926 49.0347 75.7673 48.666 75.4873 48.414C75.2167 48.1527 74.8807 48.022 74.4793 48.022C73.882 48.022 73.4667 48.274 73.2333 48.778H70.6853C70.816 48.2647 71.0493 47.8027 71.3853 47.392C71.7307 46.9813 72.16 46.6593 72.6733 46.426C73.1867 46.1927 73.7607 46.076 74.3953 46.076ZM74.4233 52.194C74.8247 52.194 75.1607 52.0773 75.4313 51.844C75.7113 51.6107 75.884 51.2793 75.9493 50.85H72.9533C72.9533 51.2607 73.0933 51.5873 73.3733 51.83C73.6533 52.0727 74.0033 52.194 74.4233 52.194ZM82.7843 54.112C82.1029 54.112 81.4963 53.9953 80.9643 53.762C80.4323 53.5287 80.0123 53.2113 79.7043 52.81C79.3963 52.3993 79.2236 51.942 79.1863 51.438H81.5523C81.5803 51.7087 81.7063 51.928 81.9303 52.096C82.1543 52.264 82.4296 52.348 82.7563 52.348C83.0549 52.348 83.2836 52.292 83.4423 52.18C83.6103 52.0587 83.6943 51.9047 83.6943 51.718C83.6943 51.494 83.5776 51.3307 83.3443 51.228C83.1109 51.116 82.7329 50.9947 82.2103 50.864C81.6503 50.7333 81.1836 50.598 80.8103 50.458C80.4369 50.3087 80.1149 50.08 79.8443 49.772C79.5736 49.4547 79.4383 49.03 79.4383 48.498C79.4383 48.05 79.5596 47.644 79.8023 47.28C80.0543 46.9067 80.4183 46.6127 80.8943 46.398C81.3796 46.1833 81.9536 46.076 82.6163 46.076C83.5963 46.076 84.3663 46.3187 84.9263 46.804C85.4956 47.2893 85.8223 47.9333 85.9063 48.736H83.6943C83.6569 48.4653 83.5356 48.2507 83.3303 48.092C83.1343 47.9333 82.8729 47.854 82.5463 47.854C82.2663 47.854 82.0516 47.91 81.9023 48.022C81.7529 48.1247 81.6783 48.2693 81.6783 48.456C81.6783 48.68 81.7949 48.848 82.0283 48.96C82.2709 49.072 82.6443 49.184 83.1483 49.296C83.7269 49.4453 84.1983 49.5947 84.5623 49.744C84.9263 49.884 85.2436 50.1173 85.5143 50.444C85.7943 50.7613 85.9389 51.1907 85.9483 51.732C85.9483 52.1893 85.8176 52.6 85.5563 52.964C85.3043 53.3187 84.9356 53.5987 84.4503 53.804C83.9743 54.0093 83.4189 54.112 82.7843 54.112ZM90.5909 54.112C89.9096 54.112 89.3029 53.9953 88.7709 53.762C88.2389 53.5287 87.8189 53.2113 87.5109 52.81C87.2029 52.3993 87.0303 51.942 86.9929 51.438H89.3589C89.3869 51.7087 89.5129 51.928 89.7369 52.096C89.9609 52.264 90.2363 52.348 90.5629 52.348C90.8616 52.348 91.0903 52.292 91.2489 52.18C91.4169 52.0587 91.5009 51.9047 91.5009 51.718C91.5009 51.494 91.3843 51.3307 91.1509 51.228C90.9176 51.116 90.5396 50.9947 90.0169 50.864C89.4569 50.7333 88.9903 50.598 88.6169 50.458C88.2436 50.3087 87.9216 50.08 87.6509 49.772C87.3803 49.4547 87.2449 49.03 87.2449 48.498C87.2449 48.05 87.3663 47.644 87.6089 47.28C87.8609 46.9067 88.2249 46.6127 88.7009 46.398C89.1863 46.1833 89.7603 46.076 90.4229 46.076C91.4029 46.076 92.1729 46.3187 92.7329 46.804C93.3023 47.2893 93.6289 47.9333 93.7129 48.736H91.5009C91.4636 48.4653 91.3423 48.2507 91.1369 48.092C90.9409 47.9333 90.6796 47.854 90.3529 47.854C90.0729 47.854 89.8583 47.91 89.7089 48.022C89.5596 48.1247 89.4849 48.2693 89.4849 48.456C89.4849 48.68 89.6016 48.848 89.8349 48.96C90.0776 49.072 90.4509 49.184 90.9549 49.296C91.5336 49.4453 92.0049 49.5947 92.3689 49.744C92.7329 49.884 93.0503 50.1173 93.3209 50.444C93.6009 50.7613 93.7456 51.1907 93.7549 51.732C93.7549 52.1893 93.6243 52.6 93.3629 52.964C93.1109 53.3187 92.7423 53.5987 92.2569 53.804C91.7809 54.0093 91.2256 54.112 90.5909 54.112ZM96.4236 45.376C96.0036 45.376 95.6582 45.2547 95.3876 45.012C95.1262 44.76 94.9956 44.452 94.9956 44.088C94.9956 43.7147 95.1262 43.4067 95.3876 43.164C95.6582 42.912 96.0036 42.786 96.4236 42.786C96.8342 42.786 97.1702 42.912 97.4316 43.164C97.7022 43.4067 97.8376 43.7147 97.8376 44.088C97.8376 44.452 97.7022 44.76 97.4316 45.012C97.1702 45.2547 96.8342 45.376 96.4236 45.376ZM97.6136 46.188V54H95.2196V46.188H97.6136ZM102.526 54.112C101.845 54.112 101.238 53.9953 100.706 53.762C100.174 53.5287 99.7545 53.2113 99.4465 52.81C99.1385 52.3993 98.9658 51.942 98.9285 51.438H101.294C101.322 51.7087 101.448 51.928 101.672 52.096C101.896 52.264 102.172 52.348 102.498 52.348C102.797 52.348 103.026 52.292 103.184 52.18C103.352 52.0587 103.436 51.9047 103.436 51.718C103.436 51.494 103.32 51.3307 103.086 51.228C102.853 51.116 102.475 50.9947 101.952 50.864C101.392 50.7333 100.926 50.598 100.552 50.458C100.179 50.3087 99.8571 50.08 99.5865 49.772C99.3158 49.4547 99.1805 49.03 99.1805 48.498C99.1805 48.05 99.3018 47.644 99.5445 47.28C99.7965 46.9067 100.16 46.6127 100.636 46.398C101.122 46.1833 101.696 46.076 102.358 46.076C103.338 46.076 104.108 46.3187 104.668 46.804C105.238 47.2893 105.564 47.9333 105.648 48.736H103.436C103.399 48.4653 103.278 48.2507 103.072 48.092C102.876 47.9333 102.615 47.854 102.288 47.854C102.008 47.854 101.794 47.91 101.644 48.022C101.495 48.1247 101.42 48.2693 101.42 48.456C101.42 48.68 101.537 48.848 101.77 48.96C102.013 49.072 102.386 49.184 102.89 49.296C103.469 49.4453 103.94 49.5947 104.304 49.744C104.668 49.884 104.986 50.1173 105.256 50.444C105.536 50.7613 105.681 51.1907 105.69 51.732C105.69 52.1893 105.56 52.6 105.298 52.964C105.046 53.3187 104.678 53.5987 104.192 53.804C103.716 54.0093 103.161 54.112 102.526 54.112ZM109.549 43.64V54H107.155V43.64H109.549ZM114.7 46.076C115.465 46.076 116.147 46.2393 116.744 46.566C117.341 46.8927 117.808 47.3593 118.144 47.966C118.48 48.5727 118.648 49.282 118.648 50.094C118.648 50.906 118.48 51.6153 118.144 52.222C117.817 52.8287 117.355 53.2953 116.758 53.622C116.161 53.9487 115.475 54.112 114.7 54.112C113.944 54.112 113.272 53.9533 112.684 53.636C112.096 53.3187 111.634 52.866 111.298 52.278C110.971 51.69 110.808 51.004 110.808 50.22C110.808 49.9867 110.822 49.7533 110.85 49.52H116.268C116.231 49.0347 116.072 48.666 115.792 48.414C115.521 48.1527 115.185 48.022 114.784 48.022C114.187 48.022 113.771 48.274 113.538 48.778H110.99C111.121 48.2647 111.354 47.8027 111.69 47.392C112.035 46.9813 112.465 46.6593 112.978 46.426C113.491 46.1927 114.065 46.076 114.7 46.076ZM114.728 52.194C115.129 52.194 115.465 52.0773 115.736 51.844C116.016 51.6107 116.189 51.2793 116.254 50.85H113.258C113.258 51.2607 113.398 51.5873 113.678 51.83C113.958 52.0727 114.308 52.194 114.728 52.194ZM122.305 47.49C122.585 47.0607 122.935 46.7247 123.355 46.482C123.775 46.23 124.242 46.104 124.755 46.104V48.638H124.097C123.5 48.638 123.052 48.7687 122.753 49.03C122.454 49.282 122.305 49.73 122.305 50.374V54H119.911V46.188H122.305V47.49ZM134.984 52.264H131.316L130.728 54H128.222L131.778 44.172H134.55L138.106 54H135.572L134.984 52.264ZM134.368 50.416L133.15 46.818L131.946 50.416H134.368ZM142.366 54.112C141.685 54.112 141.078 53.9953 140.546 53.762C140.014 53.5287 139.594 53.2113 139.286 52.81C138.978 52.3993 138.806 51.942 138.768 51.438H141.134C141.162 51.7087 141.288 51.928 141.512 52.096C141.736 52.264 142.012 52.348 142.338 52.348C142.637 52.348 142.866 52.292 143.024 52.18C143.192 52.0587 143.276 51.9047 143.276 51.718C143.276 51.494 143.16 51.3307 142.926 51.228C142.693 51.116 142.315 50.9947 141.792 50.864C141.232 50.7333 140.766 50.598 140.392 50.458C140.019 50.3087 139.697 50.08 139.426 49.772C139.156 49.4547 139.02 49.03 139.02 48.498C139.02 48.05 139.142 47.644 139.384 47.28C139.636 46.9067 140 46.6127 140.476 46.398C140.962 46.1833 141.536 46.076 142.198 46.076C143.178 46.076 143.948 46.3187 144.508 46.804C145.078 47.2893 145.404 47.9333 145.488 48.736H143.276C143.239 48.4653 143.118 48.2507 142.912 48.092C142.716 47.9333 142.455 47.854 142.128 47.854C141.848 47.854 141.634 47.91 141.484 48.022C141.335 48.1247 141.26 48.2693 141.26 48.456C141.26 48.68 141.377 48.848 141.61 48.96C141.853 49.072 142.226 49.184 142.73 49.296C143.309 49.4453 143.78 49.5947 144.144 49.744C144.508 49.884 144.826 50.1173 145.096 50.444C145.376 50.7613 145.521 51.1907 145.53 51.732C145.53 52.1893 145.4 52.6 145.138 52.964C144.886 53.3187 144.518 53.5987 144.032 53.804C143.556 54.0093 143.001 54.112 142.366 54.112ZM150.173 54.112C149.492 54.112 148.885 53.9953 148.353 53.762C147.821 53.5287 147.401 53.2113 147.093 52.81C146.785 52.3993 146.612 51.942 146.575 51.438H148.941C148.969 51.7087 149.095 51.928 149.319 52.096C149.543 52.264 149.818 52.348 150.145 52.348C150.444 52.348 150.672 52.292 150.831 52.18C150.999 52.0587 151.083 51.9047 151.083 51.718C151.083 51.494 150.966 51.3307 150.733 51.228C150.5 51.116 150.122 50.9947 149.599 50.864C149.039 50.7333 148.572 50.598 148.199 50.458C147.826 50.3087 147.504 50.08 147.233 49.772C146.962 49.4547 146.827 49.03 146.827 48.498C146.827 48.05 146.948 47.644 147.191 47.28C147.443 46.9067 147.807 46.6127 148.283 46.398C148.768 46.1833 149.342 46.076 150.005 46.076C150.985 46.076 151.755 46.3187 152.315 46.804C152.884 47.2893 153.211 47.9333 153.295 48.736H151.083C151.046 48.4653 150.924 48.2507 150.719 48.092C150.523 47.9333 150.262 47.854 149.935 47.854C149.655 47.854 149.44 47.91 149.291 48.022C149.142 48.1247 149.067 48.2693 149.067 48.456C149.067 48.68 149.184 48.848 149.417 48.96C149.66 49.072 150.033 49.184 150.537 49.296C151.116 49.4453 151.587 49.5947 151.951 49.744C152.315 49.884 152.632 50.1173 152.903 50.444C153.183 50.7613 153.328 51.1907 153.337 51.732C153.337 52.1893 153.206 52.6 152.945 52.964C152.693 53.3187 152.324 53.5987 151.839 53.804C151.363 54.0093 150.808 54.112 150.173 54.112ZM158.358 54.112C157.592 54.112 156.902 53.9487 156.286 53.622C155.679 53.2953 155.198 52.8287 154.844 52.222C154.498 51.6153 154.326 50.906 154.326 50.094C154.326 49.2913 154.503 48.5867 154.858 47.98C155.212 47.364 155.698 46.8927 156.314 46.566C156.93 46.2393 157.62 46.076 158.386 46.076C159.151 46.076 159.842 46.2393 160.458 46.566C161.074 46.8927 161.559 47.364 161.914 47.98C162.268 48.5867 162.446 49.2913 162.446 50.094C162.446 50.8967 162.264 51.606 161.9 52.222C161.545 52.8287 161.055 53.2953 160.43 53.622C159.814 53.9487 159.123 54.112 158.358 54.112ZM158.358 52.04C158.815 52.04 159.202 51.872 159.52 51.536C159.846 51.2 160.01 50.7193 160.01 50.094C160.01 49.4687 159.851 48.988 159.534 48.652C159.226 48.316 158.843 48.148 158.386 48.148C157.919 48.148 157.532 48.316 157.224 48.652C156.916 48.9787 156.762 49.4593 156.762 50.094C156.762 50.7193 156.911 51.2 157.21 51.536C157.518 51.872 157.9 52.04 158.358 52.04ZM166.894 54.112C166.212 54.112 165.606 53.9953 165.074 53.762C164.542 53.5287 164.122 53.2113 163.814 52.81C163.506 52.3993 163.333 51.942 163.296 51.438H165.662C165.69 51.7087 165.816 51.928 166.04 52.096C166.264 52.264 166.539 52.348 166.866 52.348C167.164 52.348 167.393 52.292 167.552 52.18C167.72 52.0587 167.804 51.9047 167.804 51.718C167.804 51.494 167.687 51.3307 167.454 51.228C167.22 51.116 166.842 50.9947 166.32 50.864C165.76 50.7333 165.293 50.598 164.92 50.458C164.546 50.3087 164.224 50.08 163.954 49.772C163.683 49.4547 163.548 49.03 163.548 48.498C163.548 48.05 163.669 47.644 163.912 47.28C164.164 46.9067 164.528 46.6127 165.004 46.398C165.489 46.1833 166.063 46.076 166.726 46.076C167.706 46.076 168.476 46.3187 169.036 46.804C169.605 47.2893 169.932 47.9333 170.016 48.736H167.804C167.766 48.4653 167.645 48.2507 167.44 48.092C167.244 47.9333 166.982 47.854 166.656 47.854C166.376 47.854 166.161 47.91 166.012 48.022C165.862 48.1247 165.788 48.2693 165.788 48.456C165.788 48.68 165.904 48.848 166.138 48.96C166.38 49.072 166.754 49.184 167.258 49.296C167.836 49.4453 168.308 49.5947 168.672 49.744C169.036 49.884 169.353 50.1173 169.624 50.444C169.904 50.7613 170.048 51.1907 170.058 51.732C170.058 52.1893 169.927 52.6 169.666 52.964C169.414 53.3187 169.045 53.5987 168.56 53.804C168.084 54.0093 167.528 54.112 166.894 54.112ZM172.726 45.376C172.306 45.376 171.961 45.2547 171.69 45.012C171.429 44.76 171.298 44.452 171.298 44.088C171.298 43.7147 171.429 43.4067 171.69 43.164C171.961 42.912 172.306 42.786 172.726 42.786C173.137 42.786 173.473 42.912 173.734 43.164C174.005 43.4067 174.14 43.7147 174.14 44.088C174.14 44.452 174.005 44.76 173.734 45.012C173.473 45.2547 173.137 45.376 172.726 45.376ZM173.916 46.188V54H171.522V46.188H173.916ZM183.631 46.188L178.731 57.71H176.155L177.947 53.734L174.769 46.188H177.443L179.249 51.074L181.041 46.188H183.631ZM184.021 50.08C184.021 49.2773 184.17 48.5727 184.469 47.966C184.777 47.3593 185.192 46.8927 185.715 46.566C186.238 46.2393 186.821 46.076 187.465 46.076C188.016 46.076 188.496 46.188 188.907 46.412C189.327 46.636 189.649 46.93 189.873 47.294V46.188H192.267V54H189.873V52.894C189.64 53.258 189.313 53.552 188.893 53.776C188.482 54 188.002 54.112 187.451 54.112C186.816 54.112 186.238 53.9487 185.715 53.622C185.192 53.286 184.777 52.8147 184.469 52.208C184.17 51.592 184.021 50.8827 184.021 50.08ZM189.873 50.094C189.873 49.4967 189.705 49.0253 189.369 48.68C189.042 48.3347 188.641 48.162 188.165 48.162C187.689 48.162 187.283 48.3347 186.947 48.68C186.62 49.016 186.457 49.4827 186.457 50.08C186.457 50.6773 186.62 51.1533 186.947 51.508C187.283 51.8533 187.689 52.026 188.165 52.026C188.641 52.026 189.042 51.8533 189.369 51.508C189.705 51.1627 189.873 50.6913 189.873 50.094ZM197.177 54.112C196.496 54.112 195.889 53.9953 195.357 53.762C194.825 53.5287 194.405 53.2113 194.097 52.81C193.789 52.3993 193.616 51.942 193.579 51.438H195.945C195.973 51.7087 196.099 51.928 196.323 52.096C196.547 52.264 196.822 52.348 197.149 52.348C197.448 52.348 197.676 52.292 197.835 52.18C198.003 52.0587 198.087 51.9047 198.087 51.718C198.087 51.494 197.97 51.3307 197.737 51.228C197.504 51.116 197.126 50.9947 196.603 50.864C196.043 50.7333 195.576 50.598 195.203 50.458C194.83 50.3087 194.508 50.08 194.237 49.772C193.966 49.4547 193.831 49.03 193.831 48.498C193.831 48.05 193.952 47.644 194.195 47.28C194.447 46.9067 194.811 46.6127 195.287 46.398C195.772 46.1833 196.346 46.076 197.009 46.076C197.989 46.076 198.759 46.3187 199.319 46.804C199.888 47.2893 200.215 47.9333 200.299 48.736H198.087C198.05 48.4653 197.928 48.2507 197.723 48.092C197.527 47.9333 197.266 47.854 196.939 47.854C196.659 47.854 196.444 47.91 196.295 48.022C196.146 48.1247 196.071 48.2693 196.071 48.456C196.071 48.68 196.188 48.848 196.421 48.96C196.664 49.072 197.037 49.184 197.541 49.296C198.12 49.4453 198.591 49.5947 198.955 49.744C199.319 49.884 199.636 50.1173 199.907 50.444C200.187 50.7613 200.332 51.1907 200.341 51.732C200.341 52.1893 200.21 52.6 199.949 52.964C199.697 53.3187 199.328 53.5987 198.843 53.804C198.367 54.0093 197.812 54.112 197.177 54.112ZM203.01 45.376C202.59 45.376 202.244 45.2547 201.974 45.012C201.712 44.76 201.582 44.452 201.582 44.088C201.582 43.7147 201.712 43.4067 201.974 43.164C202.244 42.912 202.59 42.786 203.01 42.786C203.42 42.786 203.756 42.912 204.018 43.164C204.288 43.4067 204.424 43.7147 204.424 44.088C204.424 44.452 204.288 44.76 204.018 45.012C203.756 45.2547 203.42 45.376 203.01 45.376ZM204.2 46.188V54H201.806V46.188H204.2ZM213.914 46.188L209.014 57.71H206.438L208.23 53.734L205.052 46.188H207.726L209.532 51.074L211.324 46.188H213.914ZM214.304 50.08C214.304 49.2773 214.453 48.5727 214.752 47.966C215.06 47.3593 215.475 46.8927 215.998 46.566C216.521 46.2393 217.104 46.076 217.748 46.076C218.299 46.076 218.779 46.188 219.19 46.412C219.61 46.636 219.932 46.93 220.156 47.294V46.188H222.55V54H220.156V52.894C219.923 53.258 219.596 53.552 219.176 53.776C218.765 54 218.285 54.112 217.734 54.112C217.099 54.112 216.521 53.9487 215.998 53.622C215.475 53.286 215.06 52.8147 214.752 52.208C214.453 51.592 214.304 50.8827 214.304 50.08ZM220.156 50.094C220.156 49.4967 219.988 49.0253 219.652 48.68C219.325 48.3347 218.924 48.162 218.448 48.162C217.972 48.162 217.566 48.3347 217.23 48.68C216.903 49.016 216.74 49.4827 216.74 50.08C216.74 50.6773 216.903 51.1533 217.23 51.508C217.566 51.8533 217.972 52.026 218.448 52.026C218.924 52.026 219.325 51.8533 219.652 51.508C219.988 51.1627 220.156 50.6913 220.156 50.094ZM227.46 54.112C226.779 54.112 226.172 53.9953 225.64 53.762C225.108 53.5287 224.688 53.2113 224.38 52.81C224.072 52.3993 223.899 51.942 223.862 51.438H226.228C226.256 51.7087 226.382 51.928 226.606 52.096C226.83 52.264 227.105 52.348 227.432 52.348C227.731 52.348 227.959 52.292 228.118 52.18C228.286 52.0587 228.37 51.9047 228.37 51.718C228.37 51.494 228.253 51.3307 228.02 51.228C227.787 51.116 227.409 50.9947 226.886 50.864C226.326 50.7333 225.859 50.598 225.486 50.458C225.113 50.3087 224.791 50.08 224.52 49.772C224.249 49.4547 224.114 49.03 224.114 48.498C224.114 48.05 224.235 47.644 224.478 47.28C224.73 46.9067 225.094 46.6127 225.57 46.398C226.055 46.1833 226.629 46.076 227.292 46.076C228.272 46.076 229.042 46.3187 229.602 46.804C230.171 47.2893 230.498 47.9333 230.582 48.736H228.37C228.333 48.4653 228.211 48.2507 228.006 48.092C227.81 47.9333 227.549 47.854 227.222 47.854C226.942 47.854 226.727 47.91 226.578 48.022C226.429 48.1247 226.354 48.2693 226.354 48.456C226.354 48.68 226.471 48.848 226.704 48.96C226.947 49.072 227.32 49.184 227.824 49.296C228.403 49.4453 228.874 49.5947 229.238 49.744C229.602 49.884 229.919 50.1173 230.19 50.444C230.47 50.7613 230.615 51.1907 230.624 51.732C230.624 52.1893 230.493 52.6 230.232 52.964C229.98 53.3187 229.611 53.5987 229.126 53.804C228.65 54.0093 228.095 54.112 227.46 54.112ZM234.665 46.188V54H232.271V46.188H234.665Z" fill="black"/>
</svg>
