<svg width="212" height="28" viewBox="0 0 212 28" fill="none" xmlns="http://www.w3.org/2000/svg">
<g clip-path="url(#clip0_13_96)">
<path d="M5.95317 27.3422H0V0.657715H5.95317V27.3422Z" fill="white"/>
<path d="M33.2019 20.0776L40.1061 27.3451H32.9958L26.2154 20.2004H18.1954V27.3451H12.2422V0.657715H30.5581C40.3151 0.657715 42.591 5.4608 42.591 10.4276C42.591 14.9033 40.7303 19.2532 33.2049 20.0747L33.2019 20.0776ZM29.1478 15.0261C36.5495 15.0261 36.6319 12.2342 36.6319 10.4276C36.6319 8.62096 36.5495 5.82915 29.1478 5.82915H18.1895V15.0261H29.1478Z" fill="white"/>
<path d="M72.8515 5.83207H61.7695V27.3451H55.8163V5.83207H44.7344V0.657715H72.8515V5.82915V5.83207Z" fill="white"/>
<path d="M93.7314 27.3422L83.8506 5.95193V27.3422H77.8975V0.657715H87.946L96.5048 19.2152L105.064 0.657715H115.112V27.3422H109.159V5.95485L99.2782 27.3451H93.7373L93.7314 27.3422Z" fill="white"/>
<path d="M146.409 0.657715C149.303 9.77277 152.074 18.271 154.927 27.3422H148.682L147.069 22.3345H127.761L126.188 27.3422H119.944C122.797 18.2681 125.567 9.76985 128.461 0.657715H146.406H146.409ZM129.415 17.163H145.417L141.819 5.83207H133.054L129.415 17.163Z" fill="white"/>
<path d="M187.716 0.780432V5.83201C185.803 5.6186 183.807 5.47243 182.049 5.37596V0.289307C185.017 0.508559 187.716 0.783356 187.716 0.783356V0.780432Z" fill="white"/>
<path d="M187.716 22.1709V27.2225C187.716 27.2225 185.017 27.4943 182.049 27.7165V22.6299C183.807 22.5334 185.803 22.3872 187.716 22.1738V22.1709Z" fill="white"/>
<path d="M163.485 14C163.485 19.7473 166.173 22.8256 176.761 22.8256C176.761 22.8256 178.569 22.7993 181.071 22.6766V27.7807C179.322 27.9035 177.573 27.9971 176.304 27.9971C170.557 27.9971 157.535 27.544 157.535 13.9971C157.535 0.450199 170.554 0 176.301 0C177.57 0 179.319 0.0935477 181.068 0.216329V5.32053C178.569 5.19775 176.758 5.17143 176.758 5.17143C166.17 5.17143 163.482 8.24974 163.482 13.9971L163.485 14Z" fill="white"/>
<path d="M173.669 20.5483C177.312 20.5483 180.264 17.6165 180.264 14C180.264 10.3835 177.312 7.45166 173.669 7.45166C170.027 7.45166 167.074 10.3835 167.074 14C167.074 17.6165 170.027 20.5483 173.669 20.5483Z" fill="white"/>
<path d="M204.103 9.31376C206.014 9.31376 207.563 7.77588 207.563 5.8788C207.563 3.98173 206.014 2.44385 204.103 2.44385C202.193 2.44385 200.644 3.98173 200.644 5.8788C200.644 7.77588 202.193 9.31376 204.103 9.31376Z" fill="white"/>
<path d="M195.598 9.31376C197.509 9.31376 199.058 7.77588 199.058 5.8788C199.058 3.98173 197.509 2.44385 195.598 2.44385C193.688 2.44385 192.139 3.98173 192.139 5.8788C192.139 7.77588 193.688 9.31376 195.598 9.31376Z" fill="white"/>
<path d="M204.103 25.5589C206.014 25.5589 207.563 24.021 207.563 22.1239C207.563 20.2268 206.014 18.689 204.103 18.689C202.193 18.689 200.644 20.2268 200.644 22.1239C200.644 24.021 202.193 25.5589 204.103 25.5589Z" fill="white"/>
<path d="M195.598 25.5589C197.509 25.5589 199.058 24.021 199.058 22.1239C199.058 20.2268 197.509 18.689 195.598 18.689C193.688 18.689 192.139 20.2268 192.139 22.1239C192.139 24.021 193.688 25.5589 195.598 25.5589Z" fill="white"/>
<path d="M200.035 17.4349C201.945 17.4349 203.494 15.897 203.494 13.9999C203.494 12.1028 201.945 10.5649 200.035 10.5649C198.124 10.5649 196.575 12.1028 196.575 13.9999C196.575 15.897 198.124 17.4349 200.035 17.4349Z" fill="white"/>
<path d="M208.54 17.4349C210.451 17.4349 212 15.897 212 13.9999C212 12.1028 210.451 10.5649 208.54 10.5649C206.63 10.5649 205.081 12.1028 205.081 13.9999C205.081 15.897 206.63 17.4349 208.54 17.4349Z" fill="white"/>
</g>
<defs>
<clipPath id="clip0_13_96">
<rect width="212" height="28" fill="white"/>
</clipPath>
</defs>
</svg>
