<svg width="24" height="24" viewBox="0 0 24 24" fill="none" xmlns="http://www.w3.org/2000/svg">
<path fill-rule="evenodd" clip-rule="evenodd" d="M12 24C18.6274 24 24 18.6274 24 12C24 5.37258 18.6274 0 12 0C5.37258 0 0 5.37258 0 12C0 18.6274 5.37258 24 12 24ZM14.4978 6.53333C13.7113 6.5265 12.9535 6.82888 12.3876 7.37536L12.3876 7.37532L12.3825 7.38042L11.5225 8.23542C11.3266 8.43011 11.3257 8.74669 11.5204 8.94252C11.7151 9.13835 12.0317 9.13927 12.2275 8.94458L13.0848 8.09228C13.4618 7.72945 13.9659 7.52875 14.4892 7.5333C15.0136 7.53785 15.5152 7.74819 15.886 8.11901C16.2568 8.48982 16.4671 8.99145 16.4717 9.51584C16.4762 10.0389 16.2757 10.5428 15.9132 10.9197L14.4164 12.4164L14.4164 12.4165C14.2136 12.6193 13.9696 12.7762 13.7009 12.8764C13.4322 12.9767 13.1451 13.0179 12.859 12.9974C12.573 12.977 12.2947 12.8952 12.043 12.7577C11.7913 12.6202 11.5722 12.4302 11.4004 12.2005C11.235 11.9794 10.9216 11.9342 10.7005 12.0996C10.4794 12.265 10.4342 12.5784 10.5996 12.7995C10.8573 13.144 11.186 13.429 11.5635 13.6353C11.9411 13.8415 12.3585 13.9642 12.7876 13.9949C13.2167 14.0256 13.6474 13.9637 14.0504 13.8134C14.4535 13.663 14.8194 13.4278 15.1236 13.1236L15.1236 13.1235L16.6236 11.6236L16.6236 11.6236L16.6296 11.6174C17.1761 11.0515 17.4785 10.2937 17.4717 9.50715C17.4648 8.72056 17.1493 7.96812 16.5931 7.4119C16.0369 6.85568 15.2844 6.54017 14.4978 6.53333ZM11.2124 10.0051C10.7833 9.97438 10.3526 10.0363 9.94958 10.1866C9.54655 10.337 9.18056 10.5722 8.87645 10.8764L8.87638 10.8765L7.37645 12.3764L7.37639 12.3764L7.37036 12.3826C6.82388 12.9485 6.5215 13.7063 6.52833 14.4928C6.53517 15.2794 6.85068 16.0319 7.4069 16.5881C7.96312 17.1443 8.71556 17.4598 9.50215 17.4667C10.2887 17.4735 11.0465 17.1711 11.6124 16.6246L11.6124 16.6247L11.6186 16.6186L12.4736 15.7636C12.6688 15.5683 12.6688 15.2517 12.4736 15.0564C12.2783 14.8612 11.9617 14.8612 11.7664 15.0564L10.9147 15.9082C10.5378 16.2707 10.0339 16.4713 9.51084 16.4667C8.98645 16.4621 8.48482 16.2518 8.11401 15.881C7.74319 15.5102 7.53285 15.0086 7.5283 14.4842C7.52375 13.9611 7.72428 13.4572 8.0868 13.0803L9.58355 11.5836L9.58362 11.5835C9.78637 11.3807 10.0304 11.2238 10.2991 11.1236C10.5678 11.0233 10.8549 10.9821 11.141 11.0026C11.427 11.023 11.7053 11.1048 11.957 11.2423C12.2087 11.3798 12.4278 11.5698 12.5996 11.7995C12.765 12.0206 13.0784 12.0658 13.2995 11.9004C13.5206 11.735 13.5658 11.4216 13.4004 11.2005C13.1427 10.856 12.814 10.571 12.4365 10.3647C12.0589 10.1585 11.6415 10.0358 11.2124 10.0051Z" fill="#009ADE"/>
</svg>
